<?xml version="1.0" encoding="UTF-8"?>
<svg version="1.1" xmlns="http://www.w3.org/2000/svg" width="432" height="462">
<path d="M0 0 C1.27768848 -0.00445668 1.27768848 -0.00445668 2.58118886 -0.0090034 C5.44615948 -0.01770109 8.31108837 -0.01919955 11.17607117 -0.02069092 C13.22586659 -0.02531832 15.27566116 -0.03034288 17.32545471 -0.03573608 C22.90194804 -0.04886927 28.47842932 -0.05530679 34.05493569 -0.05974674 C37.53735978 -0.06267588 41.01978056 -0.06678038 44.50220299 -0.07125092 C55.39343098 -0.08492804 66.28465142 -0.09459374 77.17588741 -0.09845281 C89.75658748 -0.10293474 102.33717897 -0.12048808 114.91784602 -0.1494534 C124.63681808 -0.17105486 134.35575956 -0.18115626 144.07475537 -0.18249393 C149.88205618 -0.18354302 155.68925495 -0.18947311 161.49653053 -0.20731354 C166.95890651 -0.2237677 172.42110344 -0.22596259 177.88349533 -0.21717453 C179.88861635 -0.21640274 181.89374688 -0.22076546 183.89884377 -0.23063278 C186.63590169 -0.24331247 189.3723217 -0.23749711 192.109375 -0.22705078 C192.90305979 -0.23510719 193.69674457 -0.24316359 194.51448041 -0.25146413 C199.30666889 -0.2086804 202.58218533 0.50953025 206.74516296 3.14044189 C208.28076353 6.31088106 207.85921473 9.9614673 207.84281921 13.43731689 C207.83959656 14.64259033 207.8363739 15.84786377 207.83305359 17.08966064 C207.82467468 18.34391846 207.81629578 19.59817627 207.80766296 20.89044189 C207.80315125 22.16016846 207.79863953 23.42989502 207.79399109 24.73809814 C207.78220852 27.87226026 207.76575713 31.00632731 207.74516296 34.14044189 C208.52110809 34.12933884 209.29705322 34.11823578 210.09651184 34.10679626 C217.42322659 34.00644637 224.74960631 33.93040291 232.07682991 33.88138103 C235.84352656 33.85533047 239.60965353 33.82001789 243.37602234 33.76324463 C247.0135492 33.70875911 250.65052952 33.67898721 254.28843307 33.66605568 C255.6735227 33.65684511 257.05858372 33.63885831 258.44343948 33.61179161 C260.38892986 33.57529336 262.33497487 33.57339776 264.2808075 33.57281494 C265.38667206 33.56171188 266.49253662 33.55060883 267.63191223 33.53916931 C271.93793154 34.3708053 273.83332214 35.88472205 276.74516296 39.14044189 C277.34562567 42.03398662 277.55074323 44.09631457 277.48979187 46.98150635 C277.4970932 47.75632858 277.50439453 48.53115082 277.51191711 49.32945251 C277.52810983 51.88843928 277.50090609 54.44488182 277.47172546 57.00372314 C277.47068682 58.79670714 277.47172779 60.58969342 277.4747467 62.38267517 C277.47456727 66.14643254 277.45373559 69.90933319 277.41752625 73.6729126 C277.37250968 78.45264215 277.3709975 83.23110112 277.38456154 88.01098347 C277.3913152 91.72015785 277.37783796 95.42905306 277.35830307 99.13817406 C277.35069821 100.89727495 277.3482606 102.65640723 277.35147476 104.41552162 C277.3549923 115.94511509 276.11135396 126.07611236 272.74516296 137.14044189 C272.50955658 137.93328079 272.2739502 138.72611969 272.03120422 139.54298401 C265.8835053 157.88688774 250.52763574 172.42942689 233.74516296 181.14044189 C220.91559015 187.17715662 209.26576455 187.87252078 195.29838562 187.36383057 C185.62267946 186.80249926 185.62267946 186.80249926 176.80033875 190.0569458 C174.43161179 192.36598933 174.43161179 192.36598933 172.58158875 194.82965088 C169.38460398 198.85244546 164.98445168 201.31897549 160.74516296 204.14044189 C159.57551676 205.01145502 158.40854432 205.88607852 157.24516296 206.76544189 C150.91621344 211.28825252 144.20141162 214.0608339 136.74516296 216.14044189 C136.05775477 242.93523361 136.05775477 242.93523361 143.74516296 268.14044189 C144.08595886 268.8093042 144.42675476 269.4781665 144.77787781 270.16729736 C146.45582354 273.4429957 148.18714825 276.67421484 150.01078796 279.87091064 C151.63516584 282.93308246 152.69542455 285.84894282 153.74516296 289.14044189 C154.93069763 289.12473145 156.1162323 289.109021 157.33769226 289.09283447 C161.74517496 289.03844625 166.15262811 289.00405944 170.56034851 288.97564697 C172.46632377 288.96058061 174.37226448 288.94012365 176.27812195 288.91412354 C179.02112872 288.87764548 181.76367624 288.86069398 184.50688171 288.84747314 C185.78059883 288.82424736 185.78059883 288.82424736 187.08004761 288.80055237 C191.79462494 288.79921776 194.94030543 289.03875942 198.74516296 292.14044189 C201.32930589 296.01665629 201.04796774 299.25780231 201.05155945 303.75518799 C201.05988297 304.63516953 201.06820648 305.51515106 201.07678223 306.42179871 C201.10091198 309.33587038 201.1096579 312.24971836 201.11625671 315.16387939 C201.12522066 317.18785673 201.13434246 319.21183338 201.14361572 321.23580933 C201.16011628 325.48105481 201.1678078 329.72622132 201.17070007 333.97149658 C201.17608547 339.4114621 201.21376768 344.85068561 201.25944424 350.29044151 C201.2891857 354.47175812 201.296423 358.65289542 201.29742622 362.83430862 C201.30163418 364.83979313 201.31409145 366.8452779 201.33494377 368.85065842 C201.36179815 371.65662962 201.35705064 374.46087268 201.3445282 377.26690674 C201.36677963 378.50924828 201.36677963 378.50924828 201.38948059 379.77668762 C201.37971695 380.54491348 201.36995331 381.31313934 201.3598938 382.10464478 C201.36190513 382.76720465 201.36391645 383.42976452 201.36598873 384.11240196 C200.32425037 387.5154292 198.53325094 388.99285096 195.74516296 391.14044189 C192.83804795 391.63322516 190.51769611 391.81811328 187.61599731 391.77536011 C186.80192053 391.78316006 185.98784375 391.79096001 185.14909798 391.79899633 C182.42341537 391.8189277 179.69912722 391.8031479 176.97343445 391.78741455 C175.01861252 391.79419012 173.06379697 391.80309291 171.10899353 391.81396484 C165.80118005 391.83677032 160.49385218 391.82791695 155.18603015 391.81206942 C149.63452509 391.79941878 144.08306186 391.81114804 138.53155518 391.81900024 C129.20953396 391.82809846 119.88771076 391.81610348 110.5657196 391.79229736 C99.78248277 391.76507789 88.99971848 391.77390569 78.21649307 391.80142939 C68.96286196 391.82410495 59.70937326 391.82732836 50.45572335 391.81423604 C44.92681858 391.80643405 39.39813609 391.80542077 33.86924553 391.82191849 C28.67260949 391.83634158 23.47658399 391.82638089 18.28001404 391.7974472 C16.37081988 391.79082519 14.4615745 391.79275303 12.55240059 391.80376053 C9.95001733 391.81738368 7.34960208 391.80034111 4.74734497 391.77536011 C3.98810822 391.78651372 3.22887148 391.79766732 2.44662756 391.80915892 C-1.29782049 391.73921977 -2.93677609 391.43514114 -5.72406864 388.85257626 C-7.1811332 386.27102645 -7.75409009 385.01047271 -7.74931335 382.1113739 C-7.75770233 381.3445932 -7.76609131 380.5778125 -7.7747345 379.78779602 C-7.76349548 378.96113937 -7.75225647 378.13448273 -7.74067688 377.28277588 C-7.74447357 376.400896 -7.74827026 375.51901611 -7.75218201 374.6104126 C-7.75957762 371.70208917 -7.73822053 368.79476993 -7.71577454 365.88653564 C-7.71338961 363.86302304 -7.71248489 361.8395082 -7.71299744 359.81599426 C-7.70987122 355.57838041 -7.69331828 351.34110531 -7.66645813 347.10357666 C-7.63245699 341.67052068 -7.6248303 336.23783646 -7.6263485 330.80468655 C-7.62580481 326.6276952 -7.61483825 322.45078518 -7.60034561 318.27382088 C-7.59397986 316.27034178 -7.59003924 314.26685346 -7.5885582 312.26336479 C-7.58422409 309.46498773 -7.56672123 306.66700562 -7.54536438 303.86871338 C-7.54627075 303.0400325 -7.54717712 302.21135162 -7.54811096 301.3575592 C-7.4680962 294.19127868 -7.4680962 294.19127868 -5.25483704 291.14044189 C-0.89302292 288.55011429 3.8366135 288.79519033 8.76469421 288.72637939 C9.62326523 288.70701324 10.48183624 288.68764709 11.36642456 288.66769409 C14.09673771 288.60812634 16.82709354 288.56160455 19.55766296 288.51544189 C21.41380069 288.4772411 23.26992109 288.43818815 25.12602234 288.39825439 C29.6655944 288.30244363 34.20524943 288.21832869 38.74516296 288.14044189 C40.01075477 285.78043756 41.2748516 283.41965205 42.53813171 281.05841064 C43.06884277 280.06931702 43.06884277 280.06931702 43.61027527 279.0602417 C52.56551158 262.30843968 56.64785006 247.22934998 57.30766296 228.20294189 C57.37243835 226.46174072 57.37243835 226.46174072 57.43852234 224.68536377 C57.54401138 221.83715957 57.64612851 218.9888766 57.74516296 216.14044189 C56.75806335 215.86345459 56.75806335 215.86345459 55.75102234 215.58087158 C40.98985919 211.3193032 28.16575039 202.30371695 16.74516296 192.14044189 C16.36617859 191.44958496 15.98719421 190.75872803 15.59672546 190.04693604 C13.78020564 187.78163569 13.78020564 187.78163569 10.29374695 187.6897583 C8.85947839 187.68845775 7.42510464 187.7072464 5.99125671 187.74200439 C4.40637692 187.74220157 2.82149666 187.74126406 1.23661804 187.73931885 C0.4099765 187.74468658 -0.41666504 187.75005432 -1.26835632 187.75558472 C-22.21158869 187.83657441 -39.79916363 185.43089511 -56.25483704 171.14044189 C-56.84651672 170.67380127 -57.43819641 170.20716064 -58.04780579 169.72637939 C-63.90649085 164.94424188 -68.00235944 159.35267426 -72.25483704 153.14044189 C-72.97671204 152.19169189 -73.69858704 151.24294189 -74.44233704 150.26544189 C-82.98158015 135.54260894 -83.58441195 120.37600759 -83.62593079 103.86700439 C-83.63491238 102.01140273 -83.64403447 100.15580174 -83.65328979 98.30020142 C-83.66968845 94.43231453 -83.67746477 90.56451336 -83.68037415 86.69659424 C-83.68578876 81.74334723 -83.7236336 76.79090376 -83.76911831 71.8378849 C-83.79884372 68.01515737 -83.80609651 64.19262601 -83.8071003 60.36979294 C-83.81130146 58.54293459 -83.82373163 56.7160756 -83.84461784 54.88933182 C-83.87147611 52.34042582 -83.86672767 49.79342102 -83.85420227 47.2444458 C-83.86903656 46.49424164 -83.88387085 45.74403748 -83.89915466 44.97109985 C-83.84609838 41.17939489 -83.35142709 39.27486753 -81.12004089 36.16941833 C-77.69428628 33.74349134 -75.97689358 33.53174311 -71.81221008 33.57281494 C-69.89078438 33.57338142 -69.89078438 33.57338142 -67.93054199 33.57395935 C-66.5425366 33.5994888 -65.15454123 33.62556872 -63.76655579 33.65216064 C-62.33881877 33.66149308 -60.91106568 33.66860716 -59.48330688 33.67359924 C-55.73626536 33.69263588 -51.99020211 33.74170557 -48.24354553 33.79711914 C-44.41606377 33.84838504 -40.58842299 33.8711288 -36.76069641 33.89630127 C-29.25829863 33.94982957 -21.75670521 34.03509938 -14.25483704 34.14044189 C-14.27054749 33.24736328 -14.28625793 32.35428467 -14.30244446 31.43414307 C-14.35359142 28.11865433 -14.39119516 24.80358514 -14.41963196 21.487854 C-14.43471292 20.05321638 -14.45518084 18.61862481 -14.4811554 17.18414307 C-14.5175714 15.12128331 -14.53456947 13.05903332 -14.54780579 10.99591064 C-14.56351624 9.75478516 -14.57922668 8.51365967 -14.59541321 7.23492432 C-14.25483704 4.14044189 -14.25483704 4.14044189 -12.92402649 2.2744751 C-8.92421722 -0.4429615 -4.62728637 -0.00500947 0 0 Z M-42.25483704 76.14044189 C-42.30095866 81.67247425 -42.34072081 87.20382887 -42.36470032 92.73590088 C-42.37470577 94.61450471 -42.38831436 96.49309318 -42.40571594 98.37164307 C-42.43020584 101.08497937 -42.44137494 103.79810827 -42.45014954 106.51153564 C-42.46047211 107.34003525 -42.47079468 108.16853485 -42.48143005 109.0221405 C-42.48353533 120.17341797 -39.84785935 128.10896085 -32.21186829 136.34356689 C-25.84329604 142.43034391 -19.18803083 146.2813557 -10.25483704 146.14044189 C-10.56771667 144.54752319 -10.56771667 144.54752319 -10.88691711 142.92242432 C-13.4841113 128.77430832 -13.80174755 114.80621812 -13.94233704 100.45294189 C-13.97560039 98.08248143 -14.01009793 95.71203796 -14.04585266 93.34161377 C-14.13196879 87.60788175 -14.19290292 81.87468654 -14.25483704 76.14044189 C-23.49483704 76.14044189 -32.73483704 76.14044189 -42.25483704 76.14044189 Z M207.74516296 76.14044189 C207.68457703 78.98669189 207.62399109 81.83294189 207.56156921 84.76544189 C207.49943456 87.57893641 207.43619156 90.39240404 207.37284851 93.20587158 C207.33002835 95.13358068 207.28832684 97.06131501 207.24784851 98.98907471 C206.51830739 133.61075476 206.51830739 133.61075476 202.74516296 146.14044189 C212.07082252 145.6223497 220.14310105 141.74250381 226.74516296 135.14044189 C236.32279799 123.11924602 236.27666868 109.47828058 235.99516296 94.89044189 C235.97505624 93.06624287 235.95681289 91.24202232 235.94047546 89.41778564 C235.90026874 84.99102494 235.82192955 80.56731507 235.74516296 76.14044189 C226.50516296 76.14044189 217.26516296 76.14044189 207.74516296 76.14044189 Z " fill="#31141B" transform="translate(118.25483703613281,36.85955810546875)"/>
<path d="M0 0 C64.02 0 128.04 0 194 0 C194.103125 17.510625 194.20625 35.02125 194.3125 53.0625 C194.35802002 58.54367432 194.40354004 64.02484863 194.45043945 69.67211914 C194.47302246 76.48718262 194.47302246 76.48718262 194.47721863 79.70115662 C194.48477944 81.89436452 194.50211343 84.08755479 194.52787781 86.28062439 C194.84727858 114.96075749 189.35899727 138.05565809 172 161 C171.44957031 161.73605469 170.89914062 162.47210938 170.33203125 163.23046875 C156.15770383 180.76463674 133.42287131 191.26160746 111.390625 193.72265625 C105.7055669 194.1475424 100.01124303 194.21093587 94.3125 194.25 C92.76284546 194.2641394 92.76284546 194.2641394 91.18188477 194.27856445 C81.06901074 194.23592126 71.37046738 193.00036823 61.9375 189.25 C61.26195068 188.98759521 60.58640137 188.72519043 59.89038086 188.45483398 C50.26331737 184.62116913 41.91535567 179.68806184 34 173 C32.79730469 172.01580078 32.79730469 172.01580078 31.5703125 171.01171875 C13.55472561 155.66198974 1.96382468 133.6413082 0 110 C-0.35938026 101.56323729 -0.23371044 93.11007664 -0.1953125 84.66796875 C-0.19236654 82.49694929 -0.19032951 80.3259284 -0.18920898 78.15490723 C-0.17878571 70.16574961 -0.15086328 62.17662255 -0.125 54.1875 C-0.08375 36.305625 -0.0425 18.42375 0 0 Z " fill="#FB9722" transform="translate(118,51)"/>
<path d="M0 0 C32.01 0 64.02 0 97 0 C97 10.56 97 21.12 97 32 C95.35 32.99 93.7 33.98 92 35 C90.38653158 36.7419633 90.38653158 36.7419633 89.09765625 38.73046875 C88.59943359 39.45169922 88.10121094 40.17292969 87.58789062 40.91601562 C87.08451172 41.66560547 86.58113281 42.41519531 86.0625 43.1875 C84.55079921 45.39750903 83.03564724 47.6047606 81.51000977 49.80517578 C80.50303448 51.26883104 79.51636868 52.74666745 78.55053711 54.23779297 C75.10444994 59.3026806 72.3743938 61.35219053 66.4375 62.75 C65.7451123 62.93989502 65.05272461 63.12979004 64.33935547 63.32543945 C62.9227547 63.71389364 61.50309137 64.09135409 60.08056641 64.45751953 C56.90234048 65.28620036 53.76784718 66.23310925 50.625 67.1875 C49.06652344 67.64189453 49.06652344 67.64189453 47.4765625 68.10546875 C44.8669523 68.84982306 44.8669523 68.84982306 43 71 C42.28613509 74.27061512 42.59814298 76.30365352 44.27197266 79.20410156 C46.05168109 81.73622803 47.90783716 84.18553036 49.8125 86.625 C50.45509766 87.470625 51.09769531 88.31625 51.75976562 89.1875 C52.95819271 90.76222078 54.16239733 92.33257389 55.37426758 93.89697266 C55.91075928 94.59097168 56.44725098 95.2849707 57 96 C57.55582764 96.59466064 58.11165527 97.18932129 58.68432617 97.80200195 C60.56475835 100.94349961 60.42178076 103.94780145 60.40625 107.50390625 C60.41708618 108.22360092 60.42792236 108.94329559 60.43908691 109.68479919 C60.48487168 112.75456361 60.49644437 115.82424231 60.51123047 118.89428711 C60.52691275 121.13946702 60.55990334 123.38393869 60.59375 125.62890625 C60.59072876 126.32270889 60.58770752 127.01651154 60.58459473 127.7313385 C60.62875772 130.55968321 60.71512649 132.5579114 62.26831055 134.96826172 C65.66322463 136.99094703 69.30303039 135.77704216 73 135 C76.1170883 134.11829995 79.14772058 133.0544181 82.1875 131.9375 C83.7194822 131.37538731 85.25461127 130.82176675 86.79296875 130.27734375 C87.4583667 130.03234131 88.12376465 129.78733887 88.80932617 129.53491211 C91 129 91 129 97 129 C97 150.12 97 171.24 97 193 C72.73493017 193 52.76103816 187.8520967 34 172 C32.79730469 171.01580078 32.79730469 171.01580078 31.5703125 170.01171875 C13.55072065 154.6585774 1.97192743 132.64367113 0 109 C-0.3586177 100.6361347 -0.23335489 92.2559504 -0.1953125 83.88671875 C-0.19157647 81.4614931 -0.18873229 79.03626592 -0.18673706 76.61103821 C-0.17914703 70.26701599 -0.15953885 63.92308719 -0.1373291 57.57910156 C-0.11314765 49.94638245 -0.10406763 42.31363188 -0.09242249 34.68088531 C-0.07311138 23.12052549 -0.03475642 11.56037013 0 0 Z " fill="#EFC513" transform="translate(118,52)"/>
<path d="M0 0 C29.7 0 59.4 0 90 0 C90 24.09 90 48.18 90 73 C60.3 73 30.6 73 0 73 C0 63.1 0 53.2 0 43 C-5.90326172 43.05220703 -5.90326172 43.05220703 -11.92578125 43.10546875 C-15.72842686 43.12885068 -19.53106453 43.14707509 -23.33374023 43.16479492 C-25.98091199 43.1799012 -28.62805864 43.2003873 -31.27514648 43.22631836 C-35.07542101 43.26261991 -38.87536526 43.27970803 -42.67578125 43.29296875 C-44.45714226 43.31619453 -44.45714226 43.31619453 -46.27449036 43.33988953 C-47.37540512 43.34011612 -48.47631989 43.34034271 -49.6105957 43.34057617 C-51.06620659 43.35056892 -51.06620659 43.35056892 -52.55122375 43.36076355 C-55 43 -55 43 -56.81340027 41.69746399 C-58.79934909 38.85650885 -58.35777351 36.33921944 -58 33 C-56.81340027 31.30253601 -56.81340027 31.30253601 -55 30 C-52.55122375 29.63923645 -52.55122375 29.63923645 -49.6105957 29.65942383 C-48.50968094 29.65965042 -47.40876617 29.65987701 -46.27449036 29.66011047 C-45.08691635 29.67559433 -43.89934235 29.69107819 -42.67578125 29.70703125 C-41.45924362 29.71127609 -40.24270599 29.71552094 -38.98930359 29.71989441 C-35.09681229 29.73671149 -31.20483529 29.77437041 -27.3125 29.8125 C-24.67643976 29.82754287 -22.04037142 29.84123196 -19.40429688 29.85351562 C-12.9358395 29.88407527 -6.46849665 29.94279417 0 30 C0 20.1 0 10.2 0 0 Z " fill="#3E314D" transform="translate(215,341)"/>
<path d="M0 0 C2.01953125 1.828125 2.01953125 1.828125 3.8125 4.25 C4.81410156 5.58804688 4.81410156 5.58804688 5.8359375 6.953125 C6.90714844 8.46132812 6.90714844 8.46132812 8 10 C8.60376465 10.84788086 8.60376465 10.84788086 9.21972656 11.71289062 C16.45645559 21.91291118 16.45645559 21.91291118 18 25 C20.41372077 25.88262924 22.78792917 26.65366485 25.25 27.375 C25.96567139 27.59269043 26.68134277 27.81038086 27.41870117 28.03466797 C30.88713016 29.0873848 34.36435392 30.10711694 37.84765625 31.109375 C38.99105469 31.44453125 40.13445312 31.7796875 41.3125 32.125 C42.33988281 32.41632813 43.36726563 32.70765625 44.42578125 33.0078125 C47.11234997 34.04330333 48.43100147 34.59027529 50 37 C50.69088045 41.0425071 50.15341773 42.73946767 48.05859375 46.296875 C47.19917095 47.45861396 46.32495763 48.60953346 45.4375 49.75 C44.12129327 51.50223824 42.80908952 53.2563371 41.51220703 55.02294922 C40 57 40 57 38.12451172 59.10595703 C31.8676841 66.68839722 32.07559815 74.04345064 32.25 83.375 C32.26881615 85.54947177 32.2774818 87.7230715 32.26971436 89.89761353 C32.26583659 91.85417732 32.29267779 93.81073141 32.32128906 95.76708984 C31.9772363 99.22905539 31.49295417 100.61463957 29 103 C22.09018251 104.20170739 15.49169719 101.14079694 9 99 C7.16894757 98.430119 5.33582474 97.86681479 3.5 97.3125 C2.37078125 96.96638672 2.37078125 96.96638672 1.21875 96.61328125 C0.4865625 96.41089844 -0.245625 96.20851563 -1 96 C-2.1283728 95.68240723 -2.1283728 95.68240723 -3.27954102 95.35839844 C-6.60050179 94.92088875 -8.5896312 95.55931414 -11.74609375 96.65234375 C-12.83083984 97.01650391 -13.91558594 97.38066406 -15.03320312 97.75585938 C-16.15662109 98.14580078 -17.28003906 98.53574219 -18.4375 98.9375 C-20.66255692 99.70480518 -22.89035916 100.46420487 -25.12109375 101.21484375 C-26.1052124 101.55636475 -27.08933105 101.89788574 -28.10327148 102.24975586 C-31.2990984 103.0774656 -33.71708621 103.41178922 -37 103 C-39.36328125 101.44042969 -39.36328125 101.44042969 -41 99 C-41.35546875 95.77050781 -41.35546875 95.77050781 -41.1875 91.953125 C-41.15360008 90.54353958 -41.12346418 89.13385967 -41.09667969 87.72412109 C-41.06979065 86.62617218 -41.06979065 86.62617218 -41.0423584 85.50604248 C-40.81936696 73.62933828 -40.93442351 63.83788921 -49.34375 54.62988281 C-50.37343246 53.58172214 -51.41872423 52.54860649 -52.48095703 51.53344727 C-55.83860536 48.1439601 -58.69582232 44.55130617 -59.625 39.8125 C-58.77535712 35.98910705 -57.18705751 35.19357475 -54 33 C-51.16015625 31.875 -51.16015625 31.875 -48.0625 31 C-46.92296875 30.65710938 -45.7834375 30.31421875 -44.609375 29.9609375 C-41 29 -41 29 -37.390625 28.3515625 C-29.81567457 26.81341754 -25.89238618 24.72746682 -21.625 18.4375 C-20.4252295 16.58456977 -19.26184252 14.71628024 -18.12158203 12.82617188 C-16.39523329 10.01531236 -14.49219255 7.36315355 -12.5625 4.6875 C-11.94503906 3.80449219 -11.32757813 2.92148438 -10.69140625 2.01171875 C-7.53810284 -1.73874604 -4.40657062 -1.19614977 0 0 Z " fill="#35181B" transform="translate(219,86)"/>
<path d="M0 0 C29.7 0 59.4 0 90 0 C90 9.9 90 19.8 90 30 C86.05289063 30.04898437 82.10578125 30.09796875 78.0390625 30.1484375 C74.22977804 30.20239732 70.42055818 30.25972449 66.61132812 30.31738281 C63.95740542 30.35574181 61.30342949 30.39058226 58.64941406 30.421875 C54.8416029 30.46737536 51.03416042 30.52539449 47.2265625 30.5859375 C46.03382721 30.59748871 44.84109192 30.60903992 43.61221313 30.62094116 C42.51122284 30.64081085 41.41023254 30.66068054 40.27587891 30.68115234 C39.30325104 30.69447601 38.33062317 30.70779968 37.32852173 30.7215271 C34.80830518 30.77960304 34.80830518 30.77960304 33 33 C32.66666667 36.5 32.66666667 36.5 33 40 C35.58925669 42.58925669 36.67069432 42.26946157 40.27587891 42.31884766 C41.3768692 42.33871735 42.4778595 42.35858704 43.61221313 42.37905884 C44.80494843 42.39061005 45.99768372 42.40216125 47.2265625 42.4140625 C48.44451508 42.43342865 49.66246765 42.4527948 50.91732788 42.4727478 C54.8198133 42.53268215 58.72232799 42.57898471 62.625 42.625 C65.2656381 42.66316699 67.90626357 42.70221795 70.546875 42.7421875 C77.03118555 42.84006389 83.51535641 42.91952434 90 43 C90 52.9 90 62.8 90 73 C60.3 73 30.6 73 0 73 C0 48.91 0 24.82 0 0 Z " fill="#6A5F76" transform="translate(125,341)"/>
<path d="M0 0 C1.41655793 -0.0272415 2.83327045 -0.04650467 4.25 -0.0625 C5.43335938 -0.07990234 5.43335938 -0.07990234 6.640625 -0.09765625 C9 0 9 0 10.97509766 0.49560547 C13.4196078 1.10452251 15.62962435 1.12963962 18.1484375 1.1328125 C19.14810547 1.13474609 20.14777344 1.13667969 21.17773438 1.13867188 C22.76038086 1.1319043 22.76038086 1.1319043 24.375 1.125 C25.9847168 1.12209961 25.9847168 1.12209961 27.62695312 1.11914062 C35.46253311 1.07663296 43.19657064 0.72346663 51 0 C51.029729 1.02601318 51.029729 1.02601318 51.06005859 2.07275391 C51.74992051 24.73910102 53.1791872 43.92833992 65.05297852 63.75927734 C68 68.71316622 68 68.71316622 68 72 C40.28 72 12.56 72 -16 72 C-15 67 -15 67 -12.8125 63.6875 C-10.21800416 59.71679332 -8.52828595 55.60857073 -6.875 51.1875 C-6.63370361 50.5483667 -6.39240723 49.9092334 -6.14379883 49.25073242 C-5.38814222 47.17907076 -4.68789723 45.0951173 -4 43 C-3.72857178 42.2160083 -3.45714355 41.4320166 -3.17749023 40.62426758 C-0.55509433 32.27270329 -0.44700198 23.97578196 -0.3125 15.3125 C-0.27924597 13.82093512 -0.24474918 12.32939741 -0.20898438 10.83789062 C-0.12502084 7.2254602 -0.0577843 3.6129553 0 0 Z " fill="#EDC313" transform="translate(189,256)"/>
<path d="M0 0 C3.40360192 3.13225757 5.59819213 5.94213223 7.87939453 10.01318359 C14.41229884 21.12243711 25.12252138 23.73065466 37 27 C35.7561439 29.68096365 34.68717383 31.34301572 32.65234375 33.57421875 C22.96134152 44.37864019 23.54954541 56.04248374 24 70 C15.49898374 69.07520325 15.49898374 69.07520325 11.75 67.5 C3.37337123 64.03858315 -3.38824875 64.1492304 -11.8125 67.5 C-13.43091797 68.19609375 -13.43091797 68.19609375 -15.08203125 68.90625 C-18 70 -18 70 -22 70 C-22.01458252 69.3294458 -22.02916504 68.6588916 -22.04418945 67.96801758 C-22.118883 64.91561178 -22.21547299 61.86427415 -22.3125 58.8125 C-22.33505859 57.75740234 -22.35761719 56.70230469 -22.38085938 55.61523438 C-22.41630859 54.59365234 -22.45175781 53.57207031 -22.48828125 52.51953125 C-22.51446533 51.58214111 -22.54064941 50.64475098 -22.56762695 49.67895508 C-23.56168405 43.51984245 -28.49607778 38.57689501 -32.16015625 33.71875 C-33.88255752 31.17354558 -34.91546594 28.8553912 -36 26 C-35.36610352 25.84668213 -34.73220703 25.69336426 -34.07910156 25.53540039 C-20.70037308 22.11296322 -11.6089507 18.78387742 -4.18847656 6.72875977 C-3.38622456 5.34787198 -2.60366202 3.95516747 -1.85009766 2.54711914 C-1 1 -1 1 0 0 Z " fill="#FA9622" transform="translate(214,103)"/>
<path d="M0 0 C18.48 0 36.96 0 56 0 C56.20054405 16.74765616 56.20054405 16.74765616 56.24414062 24.00390625 C56.27378635 28.91450736 56.3084699 33.82463324 56.37719727 38.73486328 C56.69789883 62.28959435 56.72974931 82.3164173 42 102 C41.36835938 102.85851562 40.73671875 103.71703125 40.0859375 104.6015625 C30.14185717 116.0353927 14.9183601 123.41798938 0 125 C-2.98115759 125.10470308 -5.95502417 125.09572381 -8.9375 125.0625 C-9.71673828 125.05798828 -10.49597656 125.05347656 -11.29882812 125.04882812 C-13.19925268 125.03716908 -15.09963706 125.01923877 -17 125 C-16.06939377 119.82293815 -15.21414784 115.4579643 -11 112 C-7.74698386 111.29314439 -4.67470633 110.96198043 -1.36669922 110.71704102 C5.9165615 110.11464743 11.63614051 107.5678781 18 104 C19.24910156 103.319375 19.24910156 103.319375 20.5234375 102.625 C31.31553638 96.14237405 37.70064374 85.32582623 41.18167114 73.52548218 C42.46659906 67.98982197 42.55350254 62.64951915 42.49609375 56.98828125 C42.4982766 55.22510811 42.4982766 55.22510811 42.50050354 53.42631531 C42.49885785 50.97013846 42.48744803 48.51394984 42.46655273 46.05786133 C42.43727566 42.28357953 42.44603593 38.5106777 42.45898438 34.73632812 C42.45275557 32.34113898 42.44437139 29.94595425 42.43359375 27.55078125 C42.43652939 26.42070145 42.43946503 25.29062164 42.44248962 24.126297 C42.42980545 23.08728745 42.41712128 22.04827789 42.40405273 20.9777832 C42.39864975 20.06213089 42.39324677 19.14647858 42.38768005 18.20307922 C42.25974564 17.47606308 42.13181122 16.74904694 42 16 C38.0944753 13.39631687 34.71336111 13.64851503 30.17578125 13.5859375 C29.31438034 13.56657135 28.45297943 13.5472052 27.56547546 13.5272522 C24.81458432 13.4674797 22.06365127 13.42108052 19.3125 13.375 C17.44724739 13.33681806 15.58201237 13.2977662 13.71679688 13.2578125 C9.14467414 13.1617801 4.57246886 13.0777405 0 13 C0 8.71 0 4.42 0 0 Z " fill="#F69322" transform="translate(325,86)"/>
<path d="M0 0 C18.48 0 36.96 0 56 0 C56 4.29 56 8.58 56 13 C54.79875488 13.02505615 53.59750977 13.0501123 52.35986328 13.07592773 C47.91313571 13.16993144 43.46656693 13.27016917 39.02001953 13.37231445 C37.09362496 13.41569001 35.16719129 13.45736314 33.24072266 13.49731445 C30.47546592 13.55495362 27.7104065 13.61866616 24.9453125 13.68359375 C24.0806839 13.70030624 23.2160553 13.71701874 22.32522583 13.73423767 C18.02604148 13.72159896 18.02604148 13.72159896 14 15 C13.05269518 17.84191447 12.85835343 19.66571823 12.82299805 22.61645508 C12.81016281 23.55205765 12.79732758 24.48766022 12.78410339 25.45161438 C12.77671646 26.46402695 12.76932953 27.47643951 12.76171875 28.51953125 C12.753647 29.56968918 12.74557526 30.61984711 12.73725891 31.701828 C12.72341473 33.93197988 12.71269408 36.16215298 12.70483398 38.39233398 C12.69337748 40.65281465 12.67302776 42.91326963 12.64331055 45.17358398 C12.3738034 65.67570066 13.99698896 82.19005315 28.62890625 97.7109375 C37.41646162 106.1944753 48.7361099 111.15950025 61 111.1875 C66.38489643 111.37817399 66.38489643 111.37817399 69.14453125 114.16796875 C71.40612802 117.83842908 73 120.64231025 73 125 C61.29598853 125.42008416 51.0212529 125.53356502 40 121 C39.18402344 120.68804687 38.36804688 120.37609375 37.52734375 120.0546875 C23.22764046 114.21707278 11.62716978 103.51320193 5.40625 89.37890625 C1.92272342 81.0509091 -0.12956264 73.85070522 -0.11352539 64.70947266 C-0.11367142 64.00633942 -0.11381744 63.30320618 -0.1139679 62.57876587 C-0.11327584 60.27383245 -0.1055168 57.96898166 -0.09765625 55.6640625 C-0.09578956 54.05838058 -0.09436684 52.45269808 -0.09336853 50.84701538 C-0.08956315 46.63517668 -0.07974988 42.42337284 -0.06866455 38.21154785 C-0.05660221 33.15038269 -0.05203876 28.08920583 -0.04621124 23.0280304 C-0.03653697 15.35199607 -0.0173666 7.67603813 0 0 Z " fill="#F89422" transform="translate(49,86)"/>
<path d="M0 0 C0.91548615 -0.00845947 1.83097229 -0.01691895 2.77420044 -0.02563477 C4.27744118 -0.01652573 4.27744118 -0.01652573 5.81105042 -0.00723267 C6.86820251 -0.01248962 7.92535461 -0.01774658 9.01454163 -0.02316284 C12.51790534 -0.0363938 16.02081664 -0.02761291 19.52418518 -0.01748657 C21.9541228 -0.01950656 24.38405982 -0.02241737 26.81399536 -0.02618408 C31.91089134 -0.03061177 37.00762976 -0.02416249 42.10450745 -0.01016235 C48.64296496 0.00692049 55.18105282 -0.00290345 61.71949673 -0.02087975 C66.73887931 -0.03171321 71.75817407 -0.02827304 76.77755928 -0.02049637 C79.18854376 -0.01849269 81.59953617 -0.02095948 84.0105114 -0.02793503 C87.37913545 -0.03554108 90.74715868 -0.02395606 94.11573792 -0.00723267 C95.11587418 -0.01330536 96.11601044 -0.01937805 97.14645386 -0.02563477 C98.06475983 -0.01717529 98.9830658 -0.00871582 99.92919922 0 C101.123529 0.00169662 101.123529 0.00169662 102.34198666 0.00342751 C105.11904029 0.48300323 106.50474475 1.44189002 108.52809143 3.38095093 C109.03829871 7.46260919 108.84170945 8.91052389 106.52809143 12.38095093 C103.71620349 13.31824691 101.99695491 13.51043403 99.0874176 13.52139282 C97.72464188 13.52995804 97.72464188 13.52995804 96.33433533 13.53869629 C94.84276413 13.54037308 94.84276413 13.54037308 93.32106018 13.54208374 C92.27205536 13.54704865 91.22305054 13.55201355 90.14225769 13.55712891 C86.66669565 13.57175357 83.1911792 13.57855201 79.71559143 13.58407593 C77.3056793 13.58982581 74.89576719 13.59558356 72.4858551 13.60134888 C67.43189785 13.61185882 62.37795651 13.61770197 57.32398987 13.6211853 C50.83703615 13.6266791 44.35029137 13.65072619 37.86340332 13.67915726 C32.88611732 13.69774477 27.90888212 13.7029871 22.93156433 13.70452118 C20.53927972 13.70755553 18.14699617 13.71561017 15.75474548 13.72870636 C12.4147073 13.74569027 9.07518608 13.74390558 5.73512268 13.73739624 C4.74074188 13.74661102 3.74636108 13.75582581 2.72184753 13.76531982 C1.81333038 13.75975067 0.90481323 13.75418152 -0.03123474 13.7484436 C-1.2158857 13.75064344 -1.2158857 13.75064344 -2.42446899 13.75288773 C-5.03414141 13.27881601 -5.91304013 12.50271862 -7.47190857 10.38095093 C-8.12636569 4.27268449 -8.12636569 4.27268449 -6.22796535 1.68601036 C-3.99993224 0.0301894 -2.7605836 0.00392343 0 0 Z " fill="#30141B" transform="translate(164.47190856933594,370.6190490722656)"/>
<path d="M0 0 C9 0 9 0 13 1 C14.71429816 1.09109465 16.4317221 1.13065 18.1484375 1.1328125 C19.15519531 1.13410156 20.16195312 1.13539063 21.19921875 1.13671875 C22.24722656 1.13285156 23.29523438 1.12898438 24.375 1.125 C25.38433594 1.12886719 26.39367187 1.13273437 27.43359375 1.13671875 C35.3720478 1.12668278 43.03390361 0.56900689 51 0 C51.33 9.9 51.66 19.8 52 30 C34.84 30 17.68 30 0 30 C0 20.1 0 10.2 0 0 Z " fill="#F89422" transform="translate(189,256)"/>
</svg>
