<?xml version="1.0" encoding="UTF-8"?>
<svg version="1.1" xmlns="http://www.w3.org/2000/svg" width="285" height="250">
<path d="M0 0 C0.72767578 0.07025391 1.45535156 0.14050781 2.20507812 0.21289062 C8.15351672 0.88095426 13.35733417 2.12146093 17.73828125 6.47265625 C22.13104804 12.53723332 26.06668118 18.73283247 29.75 25.25 C30.15839111 25.96873291 30.56678223 26.68746582 30.98754883 27.42797852 C36.71344194 37.88329228 39.28806721 48.33211888 41.125 60.0625 C41.33705078 61.33480469 41.54910156 62.60710937 41.76757812 63.91796875 C43.89665477 77.06854308 44.60098676 90.13513892 45 103.4375 C45.02051422 104.11692657 45.04102844 104.79635315 45.06216431 105.49636841 C45.19854137 110.05980617 45.32132311 114.62349727 45.4375 119.1875 C45.46231445 120.11868652 45.48712891 121.04987305 45.51269531 122.00927734 C46.01214764 142.88892437 43.62074542 163.65899353 29.4375 180.1875 C22.04916435 183.02916756 14.24464651 182.533921 6.4375 182.1875 C5.17679687 182.15462891 5.17679687 182.15462891 3.890625 182.12109375 C-4.7826052 181.12398882 -11.35928163 173.02543016 -16.671875 166.66015625 C-22.45611326 158.76441508 -27.38309652 149.77687532 -29.5625 140.1875 C-30.68527344 140.24679688 -31.80804688 140.30609375 -32.96484375 140.3671875 C-39.98880603 140.36443893 -46.86347754 138.96045966 -53.75561523 137.73388672 C-56.12153387 137.31311644 -58.48919869 136.90367239 -60.85742188 136.49609375 C-62.38553173 136.22982619 -63.91353057 135.96292051 -65.44140625 135.6953125 C-66.13746475 135.5743924 -66.83352325 135.45347229 -67.55067444 135.32888794 C-71.01433249 134.70966008 -74.41541703 133.99234199 -77.82226562 133.10986328 C-86.97143629 130.85362524 -97.57717107 131.39894964 -106.5625 134.1875 C-107.2225 134.8475 -107.8825 135.5075 -108.5625 136.1875 C-111.4991021 136.4334409 -114.34812112 136.56125252 -117.2890625 136.6015625 C-118.58328629 136.63061172 -118.58328629 136.63061172 -119.90365601 136.6602478 C-122.66483616 136.72012204 -125.42605784 136.76645998 -128.1875 136.8125 C-130.05731005 136.85067259 -131.92710238 136.88972389 -133.796875 136.9296875 C-138.38527309 137.02582992 -142.97375351 137.10983166 -147.5625 137.1875 C-147.95139404 138.17459961 -148.34028809 139.16169922 -148.7409668 140.17871094 C-161.70555959 172.94247328 -161.70555959 172.94247328 -172.32421875 180.4296875 C-181.06499513 183.38904285 -193.92404408 183.23799808 -202.5625 180.1875 C-211.32682872 175.69019376 -215.68261518 169.8228455 -219.1875 160.8125 C-219.63609375 159.74708984 -219.63609375 159.74708984 -220.09375 158.66015625 C-233.69162248 124.06379927 -224.38217872 66.73651491 -210.5 33.3125 C-209.54176486 31.26092608 -208.56426338 29.21817483 -207.5625 27.1875 C-207.11777344 26.22328125 -206.67304688 25.2590625 -206.21484375 24.265625 C-202.1158048 15.59120619 -202.1158048 15.59120619 -198.5625 13.1875 C-194.8125 12.4375 -194.8125 12.4375 -191.5625 12.1875 C-190.5725 9.2175 -189.5825 6.2475 -188.5625 3.1875 C-187.82201416 3.16244385 -187.08152832 3.1373877 -186.31860352 3.11157227 C-182.92060351 2.9945828 -179.52281183 2.87232853 -176.125 2.75 C-174.96033203 2.71068359 -173.79566406 2.67136719 -172.59570312 2.63085938 C-171.45166016 2.58896484 -170.30761719 2.54707031 -169.12890625 2.50390625 C-168.08677979 2.46724854 -167.04465332 2.43059082 -165.97094727 2.39282227 C-163.51793423 2.24505463 -161.07009452 1.99983696 -158.63183594 1.6932373 C-152.77572306 1.03507583 -146.93267072 0.96844403 -141.04467773 0.89038086 C-139.82060715 0.87072769 -138.59653656 0.85107452 -137.33537292 0.83082581 C-134.00025861 0.77815731 -130.66513123 0.72929721 -127.32993579 0.68224788 C-123.81667784 0.63183095 -120.303494 0.57667446 -116.79029846 0.52210999 C-110.88522303 0.43106505 -104.98010731 0.34321212 -99.07495117 0.25756836 C-91.54246353 0.14831011 -84.01006175 0.03400272 -76.47767544 -0.08200932 C-69.95166091 -0.18249848 -63.42561407 -0.28082698 -56.89956021 -0.37872386 C-54.82776139 -0.40986811 -52.75596644 -0.44126068 -50.68417168 -0.47267342 C-9.29071079 -1.09760025 -9.29071079 -1.09760025 0 0 Z " fill="#49637C" transform="translate(231.5625,35.8125)"/>
<path d="M0 0 C0.495 1.485 0.495 1.485 1 3 C2.423125 2.9690625 2.423125 2.9690625 3.875 2.9375 C7 3 7 3 9 4 C11.95804573 4.33340471 11.95804573 4.33340471 15 4 C15.40089844 3.49726562 15.80179688 2.99453125 16.21484375 2.4765625 C19.05986655 0.12334889 22.14097533 0.82818812 25.625 1.125 C26.36758057 1.17849609 27.11016113 1.23199219 27.87524414 1.28710938 C47.82723853 2.91361927 47.82723853 2.91361927 54 6 C57.96 16.89 61.92 27.78 66 39 C92.4 39.33 118.8 39.66 146 40 C143 61 143 61 141 69 C135.125 67.125 135.125 67.125 134 66 C134.06458393 64.0595464 134.20196332 62.12130184 134.375 60.1875 C134.46523437 59.12917969 134.55546875 58.07085937 134.6484375 56.98046875 C135 54 135 54 136 50 C131.05 50 126.1 50 121 50 C121.02320313 51.48113281 121.04640625 52.96226563 121.0703125 54.48828125 C121.08907 56.42968247 121.10727022 58.37108913 121.125 60.3125 C121.14175781 61.28896484 121.15851563 62.26542969 121.17578125 63.27148438 C121.18222656 64.20927734 121.18867188 65.14707031 121.1953125 66.11328125 C121.20578613 66.97735596 121.21625977 67.84143066 121.22705078 68.73168945 C121 71 121 71 119 74 C117.85780736 74.73485647 116.71157799 75.46345731 115.5625 76.1875 C110.27594736 80.59661651 110.11856189 87.47893658 109.27636719 93.91064453 C108.85224314 97.11705234 108.32319361 100.30641601 107.8125 103.5 C107.544375 105.315 107.27625 107.13 107 109 C102.71 110.65 98.42 112.3 94 114 C99.28 115.32 104.56 116.64 110 118 C110 118.33 110 118.66 110 119 C109.32420898 119.04487549 108.64841797 119.08975098 107.95214844 119.13598633 C104.88362413 119.34759961 101.81699567 119.57981873 98.75 119.8125 C97.68652344 119.88275391 96.62304688 119.95300781 95.52734375 120.02539062 C94.50253906 120.10595703 93.47773438 120.18652344 92.421875 120.26953125 C91.47924805 120.33760986 90.53662109 120.40568848 89.56542969 120.47583008 C86.95084768 120.79539485 86.95084768 120.79539485 85.21875 122.51367188 C81.72990356 124.85083045 78.18831497 124.48016808 74.078125 124.51171875 C73.21813904 124.52966995 72.35815308 124.54762115 71.47210693 124.56611633 C68.73145416 124.62020038 65.99097535 124.65410863 63.25 124.6875 C61.38929872 124.72067479 59.52862039 124.7551646 57.66796875 124.79101562 C53.11210472 124.87592569 48.55629212 124.94274584 44 125 C43.61110596 125.98709961 43.22221191 126.97419922 42.8215332 127.99121094 C29.85694041 160.75497328 29.85694041 160.75497328 19.23828125 168.2421875 C10.49750487 171.20154285 -2.36154408 171.05049808 -11 168 C-19.76432872 163.50269376 -24.12011518 157.6353455 -27.625 148.625 C-28.07359375 147.55958984 -28.07359375 147.55958984 -28.53125 146.47265625 C-42.12912248 111.87629927 -32.81967872 54.54901491 -18.9375 21.125 C-17.97926486 19.07342608 -17.00176338 17.03067483 -16 15 C-15.55527344 14.03578125 -15.11054688 13.0715625 -14.65234375 12.078125 C-10.5533048 3.40370619 -10.5533048 3.40370619 -7 1 C-3.25 0.25 -3.25 0.25 0 0 Z " fill="#2D5D81" transform="translate(40,48)"/>
<path d="M0 0 C10.65205913 4.26082365 17.46975434 11.64450208 22.40234375 21.921875 C24.10641639 25.92048921 25.71906317 29.78885011 26.703125 34.03125 C27.49137541 37.15070905 28.15394617 39.35150472 30 42 C34.53027524 44.42035611 38.99810893 45.78964935 44 47 C44.8618398 56.05724891 45.29150256 65.0948373 45.5625 74.1875 C45.59327133 75.2103862 45.59327133 75.2103862 45.62466431 76.25393677 C45.76118753 80.83568313 45.88388139 85.417685 46 90 C46.02481445 90.93263672 46.04962891 91.86527344 46.07519531 92.82617188 C46.57471167 113.70426236 44.18202614 134.47291443 30 151 C22.61166435 153.84166756 14.80714651 153.346421 7 153 C5.73929688 152.96712891 5.73929688 152.96712891 4.453125 152.93359375 C-4.2201052 151.93648882 -10.79678163 143.83793016 -16.109375 137.47265625 C-21.89361326 129.57691508 -26.82059652 120.58937532 -29 111 C-27.68 111 -26.36 111 -25 111 C-24.49106423 108.02211984 -23.99269364 105.0430746 -23.5 102.0625 C-23.35691406 101.23169922 -23.21382812 100.40089844 -23.06640625 99.54492188 C-21.77444849 91.63937082 -21.27299459 84.47170874 -23.5 76.6875 C-24.4946794 73.16467713 -25 70.70935124 -25 67 C-20.545 66.01 -20.545 66.01 -16 65 C-17.32 64.34 -18.64 63.68 -20 63 C-20 62.34 -20 61.68 -20 61 C-20.721875 60.75636719 -21.44375 60.51273438 -22.1875 60.26171875 C-29.69651589 56.89309079 -35.72452951 49.89592014 -40 43 C-41.48007742 38.55976774 -41.1843724 34.21324702 -41.1875 29.5625 C-41.19974609 28.60794922 -41.21199219 27.65339844 -41.22460938 26.66992188 C-41.22654297 25.74888672 -41.22847656 24.82785156 -41.23046875 23.87890625 C-41.23457764 23.0391626 -41.23868652 22.19941895 -41.24291992 21.33422852 C-40.96804008 18.6928957 -40.49582409 17.19551169 -39 15 C-36.98461914 13.62792969 -36.98461914 13.62792969 -34.53515625 12.421875 C-33.65279297 11.98359375 -32.77042969 11.5453125 -31.86132812 11.09375 C-30.93771484 10.6503125 -30.01410156 10.206875 -29.0625 9.75 C-27.68288086 9.06164062 -27.68288086 9.06164062 -26.27539062 8.359375 C-19.42166574 5 -19.42166574 5 -16 5 C-15.67 9.29 -15.34 13.58 -15 18 C-8.73 18.33 -2.46 18.66 4 19 C2.68 12.73 1.36 6.46 0 0 Z " fill="#3F617B" transform="translate(231,65)"/>
<path d="M0 0 C0.495 1.485 0.495 1.485 1 3 C2.2684375 2.938125 2.2684375 2.938125 3.5625 2.875 C7.42213269 3.01535028 10.33688013 3.82780164 14 5 C12.68 6.65 11.36 8.3 10 10 C20.89 12.475 20.89 12.475 32 15 C28.96712613 16.51643694 27.18198489 17.30862054 24.0234375 17.9296875 C23.27465332 18.0829248 22.52586914 18.23616211 21.75439453 18.39404297 C20.96919434 18.55275879 20.18399414 18.71147461 19.375 18.875 C7.42707566 21.04073381 7.42707566 21.04073381 -2.375 27.5625 C-4.5961791 32.2611481 -6.35219428 37.07411268 -8 42 C-9.485 41.505 -9.485 41.505 -11 41 C-11.51126667 43.18901553 -12.00489733 45.37931666 -12.47265625 47.578125 C-12.89131599 49.50085861 -13.372445 51.40997037 -13.875 53.3125 C-14.07010853 59.06820173 -12.68523429 63.91293346 -10 69 C-7.3197388 71.74130235 -4.42625018 73.32683895 -1 75 C-0.24332031 75.42539063 0.51335938 75.85078125 1.29296875 76.2890625 C10.50729489 81.06469099 20.93210011 82.81986014 31 85 C30.85851011 86.6045556 30.71164314 88.20863767 30.5625 89.8125 C30.48128906 90.70582031 30.40007812 91.59914063 30.31640625 92.51953125 C30 95 30 95 29 98 C26.97832448 97.71422932 24.95769112 97.42108213 22.9375 97.125 C21.81214844 96.96257812 20.68679687 96.80015625 19.52734375 96.6328125 C15.90100571 95.98224023 12.52182128 95.06776238 9 94 C9.11151334 97.62554335 9.24173515 101.25019617 9.375 104.875 C9.42140625 106.39480469 9.42140625 106.39480469 9.46875 107.9453125 C9.81350328 116.90889768 10.89244264 125.15551619 14.5 133.4375 C15.13421875 134.92056641 15.13421875 134.92056641 15.78125 136.43359375 C16.99512163 139.14883794 16.99512163 139.14883794 19 142 C25.24009224 129.10254492 29.23670724 115.80162123 33 102 C35.16874252 102.50603992 36.99967627 102.99983813 39 104 C39.26039062 103.15695313 39.52078125 102.31390625 39.7890625 101.4453125 C41.07537115 97.78555693 42.67827278 94.35469794 44.375 90.875 C47.14219149 85.10055417 49.39269308 79.32817475 51.2734375 73.1953125 C52 71 52 71 53 70 C54.4887186 69.91330568 55.981445 69.89296506 57.47265625 69.90234375 C58.37177734 69.90556641 59.27089844 69.90878906 60.19726562 69.91210938 C61.61555664 69.92467773 61.61555664 69.92467773 63.0625 69.9375 C64.4865918 69.94426758 64.4865918 69.94426758 65.93945312 69.95117188 C68.29303065 69.9629989 70.64648477 69.97947975 73 70 C73 71.32 73 72.64 73 74 C74.65 74.33 76.3 74.66 78 75 C83.85273159 96.29453682 83.85273159 96.29453682 80 104 C67.79 104 55.58 104 43 104 C43 107.3 43 110.6 43 114 C43.79277344 114.14695312 44.58554688 114.29390625 45.40234375 114.4453125 C58.03411983 116.87396337 70.50758937 119.94399308 83 123 C83 123.33 83 123.66 83 124 C70.13 124.33 57.26 124.66 44 125 C42.02 129.95 40.04 134.9 38 140 C28.3873316 161.79119413 28.3873316 161.79119413 19.23828125 168.2421875 C10.49750487 171.20154285 -2.36154408 171.05049808 -11 168 C-19.76432872 163.50269376 -24.12011518 157.6353455 -27.625 148.625 C-28.07359375 147.55958984 -28.07359375 147.55958984 -28.53125 146.47265625 C-42.12912248 111.87629927 -32.81967872 54.54901491 -18.9375 21.125 C-17.97926486 19.07342608 -17.00176338 17.03067483 -16 15 C-15.55527344 14.03578125 -15.11054688 13.0715625 -14.65234375 12.078125 C-10.5533048 3.40370619 -10.5533048 3.40370619 -7 1 C-3.25 0.25 -3.25 0.25 0 0 Z " fill="#225374" transform="translate(40,48)"/>
<path d="M0 0 C0.7528125 0.07863281 1.505625 0.15726563 2.28125 0.23828125 C6.03251479 0.67060787 8.94638762 1.32693538 12.25 3.125 C11.40969238 3.13958252 10.56938477 3.15416504 9.70361328 3.16918945 C-12.84959241 3.5980671 -35.27246281 4.85742154 -57.76138306 6.59416199 C-65.087553 7.15867931 -72.41721804 7.65441754 -79.75 8.125 C-79.255 13.075 -79.255 13.075 -78.75 18.125 C-68.81004161 21.14110109 -68.81004161 21.14110109 -59.02734375 18.8984375 C-54.70153918 17.42929633 -50.26594543 17.9535084 -45.75 18.125 C-46.88548621 29.4798621 -48.33457822 40.80162579 -49.75 52.125 C-74.83 52.125 -99.91 52.125 -125.75 52.125 C-128.8056835 44.79135961 -131.8181611 37.50795807 -134.5625 30.0625 C-134.87380859 29.23556641 -135.18511719 28.40863281 -135.50585938 27.55664062 C-135.79912109 26.76322266 -136.09238281 25.96980469 -136.39453125 25.15234375 C-136.78668823 24.09648071 -136.78668823 24.09648071 -137.18676758 23.01928711 C-137.75 21.125 -137.75 21.125 -137.75 18.125 C-147.21346992 16.47330767 -156.66096527 14.93755531 -166.25 14.25 C-166.9608374 14.1888501 -167.6716748 14.1277002 -168.40405273 14.06469727 C-172.27781754 13.77456167 -172.27781754 13.77456167 -175.55078125 15.59765625 C-175.94652344 16.10167969 -176.34226562 16.60570313 -176.75 17.125 C-181.7014486 17.70074984 -186.0139291 16.43150232 -190.75 15.125 C-190.60831863 13.68708484 -190.46148957 12.2496763 -190.3125 10.8125 C-190.23128906 10.01199219 -190.15007812 9.21148437 -190.06640625 8.38671875 C-189.75 6.125 -189.75 6.125 -188.75 3.125 C-188.00951416 3.09994385 -187.26902832 3.0748877 -186.50610352 3.04907227 C-183.10810351 2.9320828 -179.71031183 2.80982853 -176.3125 2.6875 C-175.14783203 2.64818359 -173.98316406 2.60886719 -172.78320312 2.56835938 C-171.63916016 2.52646484 -170.49511719 2.48457031 -169.31640625 2.44140625 C-168.27427979 2.40474854 -167.23215332 2.36809082 -166.15844727 2.33032227 C-163.70543423 2.18255463 -161.25759452 1.93733696 -158.81933594 1.6307373 C-152.96322306 0.97257583 -147.12017072 0.90594403 -141.23217773 0.82788086 C-139.39607185 0.79840111 -139.39607185 0.79840111 -137.52287292 0.76832581 C-134.18775861 0.71565731 -130.85263123 0.66679721 -127.51743579 0.61974788 C-124.00417784 0.56933095 -120.490994 0.51417446 -116.97779846 0.45960999 C-111.07272303 0.36856505 -105.16760731 0.28071212 -99.26245117 0.19506836 C-91.72996353 0.08581011 -84.19756175 -0.02849728 -76.66517544 -0.14450932 C-70.13916091 -0.24499848 -63.61311407 -0.34332698 -57.08706021 -0.44122386 C-55.01526139 -0.47236811 -52.94346644 -0.50376068 -50.87167168 -0.53517342 C-9.48735796 -1.1599507 -9.48735796 -1.1599507 0 0 Z " fill="#804F5A" transform="translate(231.75,35.875)"/>
<path d="M0 0 C10.65205913 4.26082365 17.46975434 11.64450208 22.40234375 21.921875 C24.10641639 25.92048921 25.71906317 29.78885011 26.703125 34.03125 C27.49614162 37.16957108 28.19904045 39.29712366 30 42 C32.45878513 43.17874547 34.58673784 44.03570268 37.16015625 44.81640625 C37.81632935 45.03204224 38.47250244 45.24767822 39.14855957 45.46984863 C40.76027035 45.99682456 42.3794904 46.50073663 44 47 C43.75826651 71.89854972 42.21128476 96.30501937 39 121 C37.35 121 35.7 121 34 121 C34 109.78 34 98.56 34 87 C30.7 87 27.4 87 24 87 C23.67 76.11 23.34 65.22 23 54 C19.37 56.97 15.74 59.94 12 63 C7.29176452 66.77233013 4.15012442 67.54715127 -1.75 66.9375 C-2.79800781 66.85157593 -2.79800781 66.85157593 -3.8671875 66.76391602 C-9.47684949 66.23024776 -14.72714166 65.0153473 -20 63 C-20 62.34 -20 61.68 -20 61 C-20.721875 60.75636719 -21.44375 60.51273438 -22.1875 60.26171875 C-29.69651589 56.89309079 -35.72452951 49.89592014 -40 43 C-41.48007742 38.55976774 -41.1843724 34.21324702 -41.1875 29.5625 C-41.19974609 28.60794922 -41.21199219 27.65339844 -41.22460938 26.66992188 C-41.22654297 25.74888672 -41.22847656 24.82785156 -41.23046875 23.87890625 C-41.23457764 23.0391626 -41.23868652 22.19941895 -41.24291992 21.33422852 C-40.96804008 18.6928957 -40.49582409 17.19551169 -39 15 C-36.98461914 13.62792969 -36.98461914 13.62792969 -34.53515625 12.421875 C-33.65279297 11.98359375 -32.77042969 11.5453125 -31.86132812 11.09375 C-30.93771484 10.6503125 -30.01410156 10.206875 -29.0625 9.75 C-27.68288086 9.06164062 -27.68288086 9.06164062 -26.27539062 8.359375 C-19.42166574 5 -19.42166574 5 -16 5 C-15.67 9.29 -15.34 13.58 -15 18 C-8.73 18.33 -2.46 18.66 4 19 C2.68 12.73 1.36 6.46 0 0 Z " fill="#C2D5E0" transform="translate(231,65)"/>
<path d="M0 0 C6.49180819 5.70385321 9.50281156 11.75052327 12.65625 19.70703125 C13.61340008 21.97836358 14.57166441 24.2492268 15.53125 26.51953125 C16.24216576 28.2476378 16.95152136 29.97639234 17.65625 31.70703125 C18.97625 31.70703125 20.29625 31.70703125 21.65625 31.70703125 C22.12358615 36.28692548 21.82886016 38.95557638 19.15625 42.64453125 C18.33125 43.65515625 17.50625 44.66578125 16.65625 45.70703125 C14.67625 45.04703125 12.69625 44.38703125 10.65625 43.70703125 C3.1180375 50.44235721 -1.67798423 58.33896317 -5.34375 67.70703125 C-17.5904423 66.33018419 -28.11301616 63.73259762 -38.90625 57.76953125 C-39.80053711 57.28395752 -39.80053711 57.28395752 -40.71289062 56.78857422 C-46.77243459 53.27592143 -48.81871025 48.39873696 -50.8359375 41.96484375 C-52.14044418 36.16480636 -49.99148749 28.97987599 -47.34375 23.70703125 C-46.35375 23.37703125 -45.36375 23.04703125 -44.34375 22.70703125 C-43.23662215 20.31719143 -43.23662215 20.31719143 -42.40625 17.45703125 C-40.70331265 12.00173412 -38.80344166 8.04868125 -33.63671875 5.23046875 C-7.82305246 -4.31571727 -7.82305246 -4.31571727 0 0 Z " fill="#78A3BC" transform="translate(76.34375,65.29296875)"/>
<path d="M0 0 C0.74258057 0.05349609 1.48516113 0.10699219 2.25024414 0.16210938 C22.20223853 1.78861927 22.20223853 1.78861927 28.375 4.875 C32.335 15.765 36.295 26.655 40.375 37.875 C66.775 38.205 93.175 38.535 120.375 38.875 C117.375 59.875 117.375 59.875 115.375 67.875 C109.5 66 109.5 66 108.375 64.875 C108.43958393 62.9345464 108.57696332 60.99630184 108.75 59.0625 C108.84023437 58.00417969 108.93046875 56.94585937 109.0234375 55.85546875 C109.375 52.875 109.375 52.875 110.375 48.875 C105.425 48.875 100.475 48.875 95.375 48.875 C95.39820313 50.35613281 95.42140625 51.83726563 95.4453125 53.36328125 C95.46407 55.30468247 95.48227022 57.24608913 95.5 59.1875 C95.51675781 60.16396484 95.53351563 61.14042969 95.55078125 62.14648438 C95.55722656 63.08427734 95.56367188 64.02207031 95.5703125 64.98828125 C95.58078613 65.85235596 95.59125977 66.71643066 95.60205078 67.60668945 C95.375 69.875 95.375 69.875 93.375 72.875 C92.24858549 73.79513137 91.10076704 74.6894243 89.9375 75.5625 C87.0788081 77.90839562 85.84398567 79.65892195 84.75 83.1875 C83.375 86.875 83.375 86.875 81.25 88.0625 C76.08173727 87.72543939 71.41209763 86.36153071 67.20703125 83.29296875 C64.61931326 79.8776224 64.31418018 76.53431697 63.625 72.375 C62.61145743 66.56636843 62.61145743 66.56636843 59.34375 61.87109375 C56.94104496 60.63445742 56.94104496 60.63445742 53.375 59.875 C53.375 59.545 53.375 59.215 53.375 58.875 C56.015 58.875 58.655 58.875 61.375 58.875 C61.375 55.575 61.375 52.275 61.375 48.875 C56.755 48.875 52.135 48.875 47.375 48.875 C47.375 52.175 47.375 55.475 47.375 58.875 C38.26785714 59.48214286 38.26785714 59.48214286 34.25 56.75 C32.10219219 53.45669469 31.92676305 51.72983779 32.375 47.875 C29.9 48.37 29.9 48.37 27.375 48.875 C27.15884033 48.31103516 26.94268066 47.74707031 26.7199707 47.16601562 C25.71767332 44.56563293 24.70268598 41.97037672 23.6875 39.375 C23.34783203 38.488125 23.00816406 37.60125 22.65820312 36.6875 C19.1791888 27.84365049 15.3073405 19.21246217 6.375 14.875 C-1.08775419 12.45480048 -8.89237958 11.10685278 -16.625 9.875 C-15.68909496 8.7694811 -14.75120142 7.66564547 -13.8125 6.5625 C-13.29042969 5.94761719 -12.76835938 5.33273438 -12.23046875 4.69921875 C-11.70066406 4.09722656 -11.17085937 3.49523438 -10.625 2.875 C-10.22152344 2.30136719 -9.81804688 1.72773437 -9.40234375 1.13671875 C-6.49933884 -0.92409572 -3.3884964 -0.28867361 0 0 Z " fill="#2784BB" transform="translate(65.625,49.125)"/>
<path d="M0 0 C0 3.3 0 6.6 0 10 C1.32 10.66 2.64 11.32 4 12 C4.845625 12.78375 5.69125 13.5675 6.5625 14.375 C10.70165374 17.97937936 15.84944618 19.35952111 21 21 C21.98616457 26.74479996 22.1539193 32.30258049 22.125 38.125 C22.12234131 39.10114258 22.11968262 40.07728516 22.11694336 41.08300781 C22.0641658 49.64232592 21.83832233 58.19524796 21.5625 66.75 C21.50376709 68.65096436 21.50376709 68.65096436 21.44384766 70.59033203 C21.40179199 71.77224121 21.35973633 72.95415039 21.31640625 74.171875 C21.27974854 75.2247168 21.24309082 76.27755859 21.20532227 77.36230469 C21 80 21 80 20 83 C17.04160645 83.02689449 14.08345573 83.04678741 11.125 83.0625 C10.28324219 83.07087891 9.44148438 83.07925781 8.57421875 83.08789062 C7.76855469 83.09111328 6.96289062 83.09433594 6.1328125 83.09765625 C5.01737061 83.10551147 5.01737061 83.10551147 3.87939453 83.11352539 C2 83 2 83 0 82 C-0.09894455 80.5653041 -0.12970735 79.12559603 -0.125 77.6875 C-0.22672276 75.2382747 -0.22672276 75.2382747 -1 73 C-3.45020545 71.02318881 -6.0214995 69.9702177 -9 69 C-9 70.98 -9 72.96 -9 75 C-12 71.25 -12 71.25 -12 69 C-12.99 69 -13.98 69 -15 69 C-15.07620909 61.29539339 -15.12866692 53.5908844 -15.16479492 45.88598633 C-15.17985979 43.26615771 -15.20031554 40.64635422 -15.22631836 38.02661133 C-15.26280162 34.25595895 -15.27974988 30.48564074 -15.29296875 26.71484375 C-15.30845261 25.54791489 -15.32393646 24.38098602 -15.33988953 23.17869568 C-15.34139419 15.87020358 -14.80783833 10.7726169 -10.3515625 4.78515625 C-9.78179687 4.21667969 -9.21203125 3.64820312 -8.625 3.0625 C-8.06039063 2.47597656 -7.49578125 1.88945313 -6.9140625 1.28515625 C-5 0 -5 0 0 0 Z " fill="#2DA1DE" transform="translate(24,118)"/>
<path d="M0 0 C2.92407483 0.14188549 3.99810824 0.9982355 6.1484375 3.00390625 C8.45336534 5.6525514 10.74330748 8.31008554 13 11 C13.84498047 11.96486328 13.84498047 11.96486328 14.70703125 12.94921875 C26.72972095 27.57312364 29.22701932 48.75545687 31 67 C25.61409075 66.44759905 20.37421887 65.29115892 16 62 C14.04001192 58.53185911 13.12324614 54.80604065 12 51 C6.77560834 37.08889795 0.65502175 26.82751087 -13 20 C-12.71125 20.95261719 -12.4225 21.90523437 -12.125 22.88671875 C-11.75375 24.14097656 -11.3825 25.39523438 -11 26.6875 C-10.62875 27.92886719 -10.2575 29.17023438 -9.875 30.44921875 C-9.12296543 33.5010019 -8.80965101 35.88898362 -9 39 C-12.14581423 39.02888514 -15.29159469 39.04675923 -18.4375 39.0625 C-19.33533203 39.07087891 -20.23316406 39.07925781 -21.15820312 39.08789062 C-22.43920898 39.09272461 -22.43920898 39.09272461 -23.74609375 39.09765625 C-24.53685303 39.10289307 -25.3276123 39.10812988 -26.14233398 39.11352539 C-28 39 -28 39 -29 38 C-29.07258946 35.81360547 -29.08373783 33.62499611 -29.0625 31.4375 C-29.05347656 30.23996094 -29.04445312 29.04242188 -29.03515625 27.80859375 C-29.02355469 26.88175781 -29.01195312 25.95492187 -29 25 C-32.7981043 26.75725863 -36.58724251 28.53306179 -40.375 30.3125 C-41.45523438 30.81201172 -42.53546875 31.31152344 -43.6484375 31.82617188 C-44.6796875 32.31279297 -45.7109375 32.79941406 -46.7734375 33.30078125 C-47.72653809 33.74591064 -48.67963867 34.19104004 -49.66162109 34.6496582 C-52.27074998 35.92604944 -52.27074998 35.92604944 -54 39 C-54 38.34 -54 37.68 -54 37 C-55.98 37.495 -55.98 37.495 -58 38 C-58 31.73 -58 25.46 -58 19 C-57.01 18.67 -56.02 18.34 -55 18 C-54.34 15.03 -53.68 12.06 -53 9 C-36.83 9 -20.66 9 -4 9 C-3.34 6.69 -2.68 4.38 -2 2 C-1.34 1.34 -0.68 0.68 0 0 Z " fill="#6F8FA6" transform="translate(244,45)"/>
<path d="M0 0 C6.49180819 5.70385321 9.50281156 11.75052327 12.65625 19.70703125 C13.61340008 21.97836358 14.57166441 24.2492268 15.53125 26.51953125 C16.24216576 28.2476378 16.95152136 29.97639234 17.65625 31.70703125 C18.97625 31.70703125 20.29625 31.70703125 21.65625 31.70703125 C22.12358615 36.28692548 21.82886016 38.95557638 19.15625 42.64453125 C18.33125 43.65515625 17.50625 44.66578125 16.65625 45.70703125 C14.67625 45.04703125 12.69625 44.38703125 10.65625 43.70703125 C3.1180375 50.44235721 -1.67798423 58.33896317 -5.34375 67.70703125 C-17.5904423 66.33018419 -28.11301616 63.73259762 -38.90625 57.76953125 C-39.80053711 57.28395752 -39.80053711 57.28395752 -40.71289062 56.78857422 C-46.77243459 53.27592143 -48.81871025 48.39873696 -50.8359375 41.96484375 C-52.14044418 36.16480636 -49.99148749 28.97987599 -47.34375 23.70703125 C-46.35375 23.37703125 -45.36375 23.04703125 -44.34375 22.70703125 C-43.23662215 20.31719143 -43.23662215 20.31719143 -42.40625 17.45703125 C-40.70331265 12.00173412 -38.80344166 8.04868125 -33.63671875 5.23046875 C-7.82305246 -4.31571727 -7.82305246 -4.31571727 0 0 Z M-23.34375 3.70703125 C-24.00375 5.64578125 -24.66375 7.58453125 -25.34375 9.58203125 C-25.715 10.67257813 -26.08625 11.763125 -26.46875 12.88671875 C-27.442522 15.53323979 -27.442522 15.53323979 -27.34375 17.70703125 C-30.64375 17.70703125 -33.94375 17.70703125 -37.34375 17.70703125 C-37.34375 19.02703125 -37.34375 20.34703125 -37.34375 21.70703125 C-38.66375 22.03703125 -39.98375 22.36703125 -41.34375 22.70703125 C-41.33214844 23.28710938 -41.32054687 23.8671875 -41.30859375 24.46484375 C-41.25612826 29.00685585 -41.42623937 33.23416694 -42.34375 37.70703125 C-41.67988281 37.97257812 -41.01601563 38.238125 -40.33203125 38.51171875 C-37.66927083 39.57682292 -35.00651042 40.64192708 -32.34375 41.70703125 C-31.46332031 41.95582031 -30.58289062 42.20460937 -29.67578125 42.4609375 C-26.35411226 44.23583266 -25.94358633 46.27416499 -24.71875 49.76953125 C-23.63363418 52.98431624 -23.63363418 52.98431624 -22.34375 55.70703125 C-18.26526537 57.06652613 -15.16694055 55.85189228 -11.15625 54.76953125 C-10.40666016 54.57423828 -9.65707031 54.37894531 -8.88476562 54.17773438 C-7.03581541 53.6948875 -5.18951224 53.20192492 -3.34375 52.70703125 C-2.84875 47.75703125 -2.84875 47.75703125 -2.34375 42.70703125 C2.27625 41.05703125 6.89625 39.40703125 11.65625 37.70703125 C11.01495448 34.56020902 10.36844999 31.41461873 9.71875 28.26953125 C9.53634766 27.37169922 9.35394531 26.47386719 9.16601562 25.54882812 C8.98876953 24.69482422 8.81152344 23.84082031 8.62890625 22.9609375 C8.46656494 22.17017822 8.30422363 21.37941895 8.13696289 20.56469727 C7.82334107 18.70498457 7.82334107 18.70498457 6.65625 17.70703125 C3.32006769 17.56445936 -0.00350606 17.66474968 -3.34375 17.70703125 C-3.34375 14.40703125 -3.34375 11.10703125 -3.34375 7.70703125 C-4.33375 7.70703125 -5.32375 7.70703125 -6.34375 7.70703125 C-6.83875 5.72703125 -6.83875 5.72703125 -7.34375 3.70703125 C-12.62375 3.70703125 -17.90375 3.70703125 -23.34375 3.70703125 Z " fill="#F0F1F3" transform="translate(76.34375,65.29296875)"/>
<path d="M0 0 C0.495 1.485 0.495 1.485 1 3 C2.2684375 2.938125 2.2684375 2.938125 3.5625 2.875 C7.42213269 3.01535028 10.33688013 3.82780164 14 5 C12.68 6.65 11.36 8.3 10 10 C20.89 12.475 20.89 12.475 32 15 C28.96712613 16.51643694 27.18198489 17.30862054 24.0234375 17.9296875 C23.27465332 18.0829248 22.52586914 18.23616211 21.75439453 18.39404297 C20.96919434 18.55275879 20.18399414 18.71147461 19.375 18.875 C7.42707566 21.04073381 7.42707566 21.04073381 -2.375 27.5625 C-4.5961791 32.2611481 -6.35219428 37.07411268 -8 42 C-9.485 41.505 -9.485 41.505 -11 41 C-11.51100133 43.1878795 -12.00508737 45.37741798 -12.4765625 47.57421875 C-12.8950846 49.51378758 -13.34808811 51.44590446 -13.8125 53.375 C-14.08168628 58.579268 -12.57605533 63.07594014 -11 68 C-12.485 67.505 -12.485 67.505 -14 67 C-14.33 71.29 -14.66 75.58 -15 80 C-15.33 80 -15.66 80 -16 80 C-16 76.7 -16 73.4 -16 70 C-22.19049884 71.20790221 -25.55225416 74.96610111 -29 80 C-30.00497053 83.11530052 -30.12144083 85.96637743 -30.11352539 89.22753906 C-30.11344986 90.26831604 -30.11337433 91.30909302 -30.11329651 92.38140869 C-30.10813522 93.49820007 -30.10297394 94.61499146 -30.09765625 95.765625 C-30.0962413 96.91415955 -30.09482635 98.06269409 -30.09336853 99.24603271 C-30.08777143 102.91404831 -30.07521944 106.58200285 -30.0625 110.25 C-30.05748463 112.73697829 -30.05292178 115.22395753 -30.04882812 117.7109375 C-30.03780295 123.8073125 -30.02106769 129.90365189 -30 136 C-43.27515497 111.31871872 -30.74800768 59.30039499 -23.5390625 33.86328125 C-21.54221477 27.32341463 -19.0275595 21.13716669 -16 15 C-15.55527344 14.03578125 -15.11054688 13.0715625 -14.65234375 12.078125 C-10.5533048 3.40370619 -10.5533048 3.40370619 -7 1 C-3.25 0.25 -3.25 0.25 0 0 Z " fill="#62768A" transform="translate(40,48)"/>
<path d="M0 0 C0 7.92 0 15.84 0 24 C3.3 24 6.6 24 10 24 C10 35.22 10 46.44 10 58 C11.65 58 13.3 58 15 58 C15 58.33 15 58.66 15 59 C13.35 59 11.7 59 10 59 C10.0928125 60.5778125 10.0928125 60.5778125 10.1875 62.1875 C9.94403908 67.13787213 8.44410952 69.55589048 5 73 C2.56982422 73.22705078 2.56982422 73.22705078 -0.4453125 73.1953125 C-1.52167969 73.18886719 -2.59804687 73.18242187 -3.70703125 73.17578125 C-4.83496094 73.15902344 -5.96289062 73.14226562 -7.125 73.125 C-8.82849609 73.11146484 -8.82849609 73.11146484 -10.56640625 73.09765625 C-13.37769337 73.07403199 -16.18887262 73.0381601 -19 73 C-19 66.4 -19 59.8 -19 53 C-17.68 53 -16.36 53 -15 53 C-14.95512451 52.23558594 -14.91024902 51.47117188 -14.86401367 50.68359375 C-12.45558213 10.80500629 -12.45558213 10.80500629 -5.375 3.5 C-1.33955224 0 -1.33955224 0 0 0 Z " fill="#279FDE" transform="translate(255,128)"/>
<path d="M0 0 C-0.71037324 7.56108151 -1.60593356 15.09146715 -2.5625 22.625 C-2.70107422 23.72457031 -2.83964844 24.82414062 -2.98242188 25.95703125 C-3.32047806 28.63816654 -3.65969146 31.31914983 -4 34 C-13.89189376 34.02312428 -23.78378114 34.04091552 -33.67569637 34.05181217 C-38.2684264 34.05704082 -42.861138 34.06413812 -47.45385742 34.07543945 C-51.88233688 34.086269 -56.31079856 34.09227698 -60.73929024 34.09487724 C-62.43265628 34.09673137 -64.12602129 34.10035175 -65.81937981 34.10573006 C-68.18291232 34.1129414 -70.54637045 34.1139909 -72.90991211 34.11352539 C-73.61697296 34.11712067 -74.32403381 34.12071594 -75.05252075 34.12442017 C-79.88594784 34.11405216 -79.88594784 34.11405216 -81 33 C-81.49677928 26.96933057 -80.982072 21.69845701 -79 16 C-78.67 16 -78.34 16 -78 16 C-78 20.29 -78 24.58 -78 29 C-59.52886869 26.590722 -43.34698757 24.0536588 -30.1875 9.875 C-21.75241615 0.93236876 -12.00248209 -0.70762933 0 0 Z " fill="#B1252C" transform="translate(186,54)"/>
<path d="M0 0 C4.20331525 -0.20176953 8.40520796 -0.33964731 12.6121521 -0.43838501 C14.24197903 -0.48389469 15.87143158 -0.54636392 17.49990845 -0.62680054 C30.24845648 -1.23040405 30.24845648 -1.23040405 34.87231445 2.36376953 C36.93139935 4.90091065 38.55524616 7.3924968 40.14355469 10.24267578 C41.15487423 11.74910649 42.17393054 13.2504223 43.20605469 14.74267578 C44.42871094 16.64892578 44.42871094 16.64892578 45.14355469 18.24267578 C44.81355469 18.90267578 44.48355469 19.56267578 44.14355469 20.24267578 C43.32951172 19.21207031 43.32951172 19.21207031 42.49902344 18.16064453 C41.78359375 17.25958984 41.06816406 16.35853516 40.33105469 15.43017578 C39.62335938 14.53685547 38.91566406 13.64353516 38.18652344 12.72314453 C35.81543923 9.83452859 35.81543923 9.83452859 33.14355469 7.24267578 C31.05294237 6.93007998 31.05294237 6.93007998 29.14355469 8.24267578 C28.15355469 10.55267578 27.16355469 12.86267578 26.14355469 15.24267578 C9.97355469 15.24267578 -6.19644531 15.24267578 -22.85644531 15.24267578 C-23.51644531 18.21267578 -24.17644531 21.18267578 -24.85644531 24.24267578 C-25.84644531 24.73767578 -25.84644531 24.73767578 -26.85644531 25.24267578 C-27.47548958 27.9191344 -27.47548958 27.9191344 -27.85644531 31.05517578 C-28.37608768 34.86433992 -28.91467872 37.90121909 -30.85644531 41.24267578 C-30.44084545 32.42758388 -29.98675623 23.84664997 -27.85644531 15.24267578 C-33.63059191 15.56656408 -38.85677327 16.1435797 -44.35644531 17.99267578 C-50.37812857 19.7974454 -55.12606335 18.56866108 -60.85644531 16.24267578 C-61.85644531 15.24267578 -61.85644531 15.24267578 -61.95410156 12.95751953 C-61.9425 12.04099609 -61.93089844 11.12447266 -61.91894531 10.18017578 C-61.90992188 9.26107422 -61.90089844 8.34197266 -61.89160156 7.39501953 C-61.88 6.68474609 -61.86839844 5.97447266 -61.85644531 5.24267578 C-43.64032692 2.90023458 -25.42757199 1.1420021 -7.07580566 0.34210205 C-4.71674435 0.23641725 -2.35847582 0.11798782 0 0 Z " fill="#7C434D" transform="translate(213.8564453125,38.75732421875)"/>
<path d="M0 0 C0.18615302 10.3625183 -0.39434571 20.66061606 -1 31 C4.23807622 34.0864239 4.23807622 34.0864239 9.75 36.625 C13 38 13 38 16 40 C22.68510651 40.57809125 28.2612405 39.06847769 34.625 37.125 C35.54023438 36.85558594 36.45546875 36.58617187 37.3984375 36.30859375 C41.96176901 34.95673976 46.49643572 33.54108678 51 32 C50.48374762 39.88620012 48.88276175 47.33732506 47 55 C37.19151994 55.44706713 28.12305084 54.29510015 18.50512695 52.54638672 C16.17515677 52.12275578 13.84291115 51.71433696 11.50976562 51.30859375 C9.99984719 51.04253244 8.49007582 50.77563483 6.98046875 50.5078125 C6.29695847 50.3868924 5.61344818 50.26597229 4.90922546 50.14138794 C0.21242755 49.28522946 -4.38091445 48.19495205 -9 47 C-9 46.34 -9 45.68 -9 45 C-9.556875 44.96261719 -10.11375 44.92523438 -10.6875 44.88671875 C-16.28625424 44.40439364 -20.81665364 43.16758121 -26 41 C-22.98509443 38.99006295 -20.7850073 38.27376659 -17.3125 37.375 C-15.82169922 36.98441406 -15.82169922 36.98441406 -14.30078125 36.5859375 C-13.54152344 36.39257812 -12.78226563 36.19921875 -12 36 C-11.81824219 34.24236328 -11.81824219 34.24236328 -11.6328125 32.44921875 C-11.20510262 28.3814248 -10.74111148 24.31866816 -10.26025391 20.25683594 C-10.04311891 18.37391295 -9.85227409 16.4879819 -9.66796875 14.6015625 C-8.88568907 8.46367577 -7.21094479 5.27458093 -2.55859375 1.14453125 C-1 0 -1 0 0 0 Z " fill="#26455F" transform="translate(159,121)"/>
<path d="M0 0 C6.91932871 -0.07460708 13.83841903 -0.1288176 20.75805664 -0.16479492 C23.10803308 -0.1798061 25.45798186 -0.20022135 27.80786133 -0.22631836 C31.20140442 -0.26304034 34.5945745 -0.27980365 37.98828125 -0.29296875 C39.02519608 -0.30845261 40.0621109 -0.32393646 41.13044739 -0.33988953 C48.18216977 -0.34148707 54.29841861 0.81805981 61 3 C59.89978516 4.08667969 59.89978516 4.08667969 58.77734375 5.1953125 C57.08586094 6.90344845 55.42327458 8.6417231 53.81640625 10.4296875 C43.15742488 21.993851 29.37795385 27.17099419 14 29 C10.98525797 29.11165711 8.01857974 29.07449604 5 29 C4.67 25.7 4.34 22.4 4 19 C3.67 19 3.34 19 3 19 C2.01 12.73 1.02 6.46 0 0 Z " fill="#F6595C" transform="translate(103,54)"/>
<path d="M0 0 C0.74258057 0.05349609 1.48516113 0.10699219 2.25024414 0.16210938 C22.20223853 1.78861927 22.20223853 1.78861927 28.375 4.875 C32.335 15.765 36.295 26.655 40.375 37.875 C65.125 38.205 89.875 38.535 115.375 38.875 C115.375 39.205 115.375 39.535 115.375 39.875 C90.955 39.875 66.535 39.875 41.375 39.875 C41.87 42.35 41.87 42.35 42.375 44.875 C37.425 46.195 32.475 47.515 27.375 48.875 C26.85550781 47.5240625 26.33601563 46.173125 25.80078125 44.78125 C25.09677779 42.97900113 24.3923268 41.17692704 23.6875 39.375 C23.34783203 38.488125 23.00816406 37.60125 22.65820312 36.6875 C19.1791888 27.84365049 15.3073405 19.21246217 6.375 14.875 C-1.08775419 12.45480048 -8.89237958 11.10685278 -16.625 9.875 C-15.68909496 8.7694811 -14.75120142 7.66564547 -13.8125 6.5625 C-13.29042969 5.94761719 -12.76835938 5.33273438 -12.23046875 4.69921875 C-11.70066406 4.09722656 -11.17085937 3.49523438 -10.625 2.875 C-10.22152344 2.30136719 -9.81804688 1.72773437 -9.40234375 1.13671875 C-6.49933884 -0.92409572 -3.3884964 -0.28867361 0 0 Z " fill="#5B99BE" transform="translate(65.625,49.125)"/>
<path d="M0 0 C0.83265381 0.00523682 1.66530762 0.01047363 2.52319336 0.01586914 C3.42231445 0.0190918 4.32143555 0.02231445 5.24780273 0.02563477 C6.66609375 0.03820312 6.66609375 0.03820312 8.11303711 0.05102539 C9.06243164 0.05553711 10.01182617 0.06004883 10.98999023 0.06469727 C13.34356776 0.07652429 15.69702188 0.09300514 18.05053711 0.11352539 C18.05053711 1.43352539 18.05053711 2.75352539 18.05053711 4.11352539 C20.52553711 4.60852539 20.52553711 4.60852539 23.05053711 5.11352539 C28.9032687 26.40806221 28.9032687 26.40806221 25.05053711 34.11352539 C13.17053711 34.11352539 1.29053711 34.11352539 -10.94946289 34.11352539 C-12.58947786 30.83349546 -12.46983384 27.65782976 -11.94946289 24.11352539 C-10.8895238 21.34496448 -9.63512284 18.73301746 -8.32446289 16.07446289 C-6.42227148 11.97826662 -5.09615158 7.75337704 -3.74633789 3.44946289 C-2.62167993 0.1526714 -2.62167993 0.1526714 0 0 Z " fill="#5C2A3B" transform="translate(94.949462890625,117.886474609375)"/>
<path d="M0 0 C6.27 0 12.54 0 19 0 C19 13.2 19 26.4 19 40 C16.07125 41.485 13.1425 42.97 10.125 44.5 C8.74272217 45.20479492 8.74272217 45.20479492 7.33251953 45.92382812 C6.24366455 46.47200195 6.24366455 46.47200195 5.1328125 47.03125 C4.01737061 47.59682617 4.01737061 47.59682617 2.87939453 48.17382812 C1 49 1 49 -1 49 C-4.28395044 26.13462165 -4.28395044 26.13462165 -4.4375 14.9375 C-4.45941406 14.23189941 -4.48132813 13.52629883 -4.50390625 12.79931641 C-4.48156847 7.01801997 -3.19387962 5.58928933 0 0 Z " fill="#2D9DD7" transform="translate(216,142)"/>
<path d="M0 0 C0.88076706 0.00141495 1.76153412 0.0028299 2.66899109 0.00428772 C5.47076878 0.00986688 8.27246537 0.02241554 11.07421875 0.03515625 C12.97851447 0.04017394 14.88281144 0.04473638 16.78710938 0.04882812 C21.44534356 0.05982948 26.10351742 0.07707976 30.76171875 0.09765625 C28.17667271 2.07988693 25.72122017 3.72360202 22.76171875 5.09765625 C22.96667969 5.78730469 23.17164063 6.47695312 23.3828125 7.1875 C23.65222656 8.12722656 23.92164063 9.06695312 24.19921875 10.03515625 C24.46605469 10.95167969 24.73289063 11.86820313 25.0078125 12.8125 C25.94260418 16.88586686 26.37390449 20.94151268 26.76171875 25.09765625 C23.61590452 25.12654139 20.47012406 25.14441548 17.32421875 25.16015625 C16.42638672 25.16853516 15.52855469 25.17691406 14.60351562 25.18554688 C13.32250977 25.19038086 13.32250977 25.19038086 12.015625 25.1953125 C11.22486572 25.20054932 10.43410645 25.20578613 9.61938477 25.21118164 C7.76171875 25.09765625 7.76171875 25.09765625 6.76171875 24.09765625 C6.68912929 21.91126172 6.67798092 19.72265236 6.69921875 17.53515625 C6.70824219 16.33761719 6.71726563 15.14007813 6.7265625 13.90625 C6.73816406 12.97941406 6.74976563 12.05257812 6.76171875 11.09765625 C2.96361445 12.85491488 -0.82552376 14.63071804 -4.61328125 16.41015625 C-5.69351563 16.90966797 -6.77375 17.40917969 -7.88671875 17.92382812 C-9.43359375 18.65375977 -9.43359375 18.65375977 -11.01171875 19.3984375 C-11.96481934 19.84356689 -12.91791992 20.28869629 -13.89990234 20.74731445 C-16.50903123 22.02370569 -16.50903123 22.02370569 -18.23828125 25.09765625 C-18.23828125 24.43765625 -18.23828125 23.77765625 -18.23828125 23.09765625 C-19.55828125 23.42765625 -20.87828125 23.75765625 -22.23828125 24.09765625 C-22.23828125 17.82765625 -22.23828125 11.55765625 -22.23828125 5.09765625 C-21.24828125 4.76765625 -20.25828125 4.43765625 -19.23828125 4.09765625 C-18.90828125 3.10765625 -18.57828125 2.11765625 -18.23828125 1.09765625 C-16.91828125 1.09765625 -15.59828125 1.09765625 -14.23828125 1.09765625 C-13.5213208 0.93467041 -12.80436035 0.77168457 -12.06567383 0.60375977 C-8.03736784 -0.11730735 -4.08376422 -0.024822 0 0 Z " fill="#598DAD" transform="translate(208.23828125,58.90234375)"/>
<path d="M0 0 C1.05703125 -0.00128906 2.1140625 -0.00257812 3.203125 -0.00390625 C4.87375 0.00189453 4.87375 0.00189453 6.578125 0.0078125 C8.22554687 0.00201172 8.22554687 0.00201172 9.90625 -0.00390625 C11.49953125 -0.00197266 11.49953125 -0.00197266 13.125 0 C14.09791992 0.00112793 15.07083984 0.00225586 16.07324219 0.00341797 C18.75705384 0.12947435 21.21315509 0.53297772 23.828125 1.1328125 C23.94431264 5.04922961 24.01537154 8.96520351 24.078125 12.8828125 C24.11164063 13.99398437 24.14515625 15.10515625 24.1796875 16.25 C24.19257813 17.31992188 24.20546875 18.38984375 24.21875 19.4921875 C24.23969727 20.47670898 24.26064453 21.46123047 24.28222656 22.47558594 C23.6994308 25.88588113 22.50790122 27.01439798 19.828125 29.1328125 C15.24799484 30.65952255 10.68819561 30.35822533 5.890625 30.3828125 C4.88837891 30.4034375 3.88613281 30.4240625 2.85351562 30.4453125 C1.88736328 30.45046875 0.92121094 30.455625 -0.07421875 30.4609375 C-0.95585693 30.4702832 -1.83749512 30.47962891 -2.74584961 30.48925781 C-5.67093844 30.05948729 -7.04545617 29.15733214 -9.171875 27.1328125 C-9.4140625 24.9609375 -9.4140625 24.9609375 -9.046875 22.3828125 C-8.92054688 21.42117187 -8.79421875 20.45953125 -8.6640625 19.46875 C-8.42042969 17.81746094 -8.42042969 17.81746094 -8.171875 16.1328125 C-8.00453245 14.79207199 -7.84061962 13.45090007 -7.6796875 12.109375 C-6.19058758 0.00721033 -6.19058758 0.00721033 0 0 Z " fill="#76242F" transform="translate(177.171875,121.8671875)"/>
<path d="M0 0 C0.47456882 48.78567505 0.47456882 48.78567505 -4 68 C-9.445 68.495 -9.445 68.495 -15 69 C-15.07428463 61.29535011 -15.1286668 53.59090981 -15.16479492 45.88598633 C-15.17985979 43.26615771 -15.20031554 40.64635422 -15.22631836 38.02661133 C-15.26280162 34.25595895 -15.27974988 30.48564074 -15.29296875 26.71484375 C-15.30845261 25.54791489 -15.32393646 24.38098602 -15.33988953 23.17869568 C-15.34139419 15.87020358 -14.80783833 10.7726169 -10.3515625 4.78515625 C-9.78179687 4.21667969 -9.21203125 3.64820312 -8.625 3.0625 C-8.06039063 2.47597656 -7.49578125 1.88945313 -6.9140625 1.28515625 C-4.47531505 -0.35228846 -2.8804817 -0.09719779 0 0 Z " fill="#C9D0D7" transform="translate(24,118)"/>
<path d="M0 0 C0.58899528 3.48307085 0.73617191 6.53017638 0 10 C-1.8984375 12.10546875 -1.8984375 12.10546875 -4.3125 14.125 C-10.74415 19.93163072 -11.21280815 26.81544926 -12 35 C-12.0932959 35.95535645 -12.1865918 36.91071289 -12.28271484 37.89501953 C-12.84048301 43.78381807 -13.33062822 49.67472258 -13.75048828 55.57495117 C-14.00989974 58.09621736 -14.46506985 60.52380889 -15 63 C-16.65 63 -18.3 63 -20 63 C-20 50.13 -20 37.26 -20 24 C-26.27 24.33 -32.54 24.66 -39 25 C-40.32 27.31 -41.64 29.62 -43 32 C-43.66 32 -44.32 32 -45 32 C-45.67321284 29.75194998 -46.33834123 27.50147776 -47 25.25 C-47.37125 23.99703125 -47.7425 22.7440625 -48.125 21.453125 C-49 18 -49 18 -49 14 C-42.94781845 12.32915233 -38.16908379 11.94781852 -31.94335938 12.58740234 C-21.13589986 13.77891936 -21.13589986 13.77891936 -11.5 9.375 C-9.95761975 7.96156472 -8.45166979 6.50644978 -7 5 C-5.80338794 3.98600344 -4.59698474 2.98327144 -3.375 2 C-1 0 -1 0 0 0 Z " fill="#275575" transform="translate(255,118)"/>
<path d="M0 0 C3.25342447 0.58660229 6.50186755 1.1973234 9.75 1.8125 C10.67039062 1.97814453 11.59078125 2.14378906 12.5390625 2.31445312 C13.87324219 2.5706543 13.87324219 2.5706543 15.234375 2.83203125 C16.05131836 2.98389893 16.86826172 3.1357666 17.70996094 3.29223633 C20.38086413 4.11771057 22.00501804 5.03794326 24 7 C23.97066727 14.39184861 21.61649143 21.05713176 19.25 28 C18.74726562 29.54300781 18.74726562 29.54300781 18.234375 31.1171875 C16.09135476 37.49754322 13.5080401 43.25363442 10 49 C7.60533628 45.90306104 5.96045717 42.9938136 4.4375 39.375 C4.02371094 38.41335937 3.60992187 37.45171875 3.18359375 36.4609375 C0.26509446 27.92697589 -0.27340134 19.84757342 -0.125 10.875 C-0.11597656 9.823125 -0.10695312 8.77125 -0.09765625 7.6875 C-0.07435853 5.12475122 -0.04165112 2.56250488 0 0 Z " fill="#2398D7" transform="translate(49,142)"/>
<path d="M0 0 C4.95 0 9.9 0 15 0 C13.53515625 11.71875 13.53515625 11.71875 13.26611328 13.84375 C13.08369458 15.32184357 12.91066309 16.80111718 12.74560547 18.28125 C12.10532407 23.89467593 12.10532407 23.89467593 11 25 C10.64100302 27.17773902 10.33960769 29.36502146 10.0625 31.5546875 C9.97750244 32.21203888 9.89250488 32.86939026 9.80493164 33.54666138 C9.53258696 35.65561327 9.26582213 37.76521675 9 39.875 C8.73375331 41.9775799 8.46624356 44.07996508 8.19506836 46.18191528 C7.94846204 48.09466282 7.70654358 50.00801299 7.46484375 51.92138672 C7 55 7 55 6 58 C2.01875869 57.43125124 -0.61272328 56.12345246 -4 54 C-3.44224375 42.54819609 -2.84509367 31.14126205 -1.5 19.75 C-0.74442508 13.18969081 -0.41548228 6.58836188 0 0 Z " fill="#4E6E93" transform="translate(161,98)"/>
<path d="M0 0 C3.1358348 1.84653687 6.14957027 3.78201711 9.125 5.875 C20.56909085 13.4236267 32.76580167 16.1342183 46 19 C45.85851011 20.6045556 45.71164314 22.20863767 45.5625 23.8125 C45.48128906 24.70582031 45.40007812 25.59914062 45.31640625 26.51953125 C45 29 45 29 44 32 C43.14277344 31.86722656 42.28554687 31.73445313 41.40234375 31.59765625 C35.60543791 30.70230552 29.80940292 29.81061436 24 29 C23.67 32.63 23.34 36.26 23 40 C22.34 39.67 21.68 39.34 21 39 C20.5859375 35.83984375 20.5859375 35.83984375 20.375 31.9375 C20.30023438 30.64714844 20.22546875 29.35679687 20.1484375 28.02734375 C20.09945312 27.02832031 20.05046875 26.02929688 20 25 C19.01 24.938125 18.02 24.87625 17 24.8125 C12.22123158 24.12567296 8.84447259 21.7908619 5 19 C4.01 18.360625 3.02 17.72125 2 17.0625 C-1.37694483 11.89155323 -0.36528312 5.9987605 0 0 Z " fill="#234F6C" transform="translate(25,114)"/>
<path d="M0 0 C14.52 0 29.04 0 44 0 C42.81934267 6.49361531 41.67288333 12.66694167 40 19 C32.73108046 18.38540451 25.92925457 16.88959575 18.875 15.0625 C17.30685547 14.66514648 17.30685547 14.66514648 15.70703125 14.25976562 C10.44655809 12.9197083 5.20919163 11.52734089 0 10 C0 6.7 0 3.4 0 0 Z " fill="#6F899A" transform="translate(83,152)"/>
<path d="M0 0 C-0.5466488 8.18088206 -2.17123868 16.01785939 -4 24 C-8.88551798 25.45552997 -13.74453763 26.6299382 -18.75 27.625 C-19.40871094 27.7590625 -20.06742188 27.893125 -20.74609375 28.03125 C-23.55518625 28.58964973 -26.1276377 29 -29 29 C-28.41255243 23.71297189 -27.55200557 18.58898869 -26.40234375 13.39453125 C-25.9160395 10.96462464 -25.9160395 10.96462464 -26.06640625 8.32421875 C-26 6 -26 6 -24 4 C-15.99925041 0.77142064 -8.59393933 -0.62000364 0 0 Z " fill="#D92B2F" transform="translate(186,54)"/>
<path d="M0 0 C4.89623374 1.12990009 7.73363557 2.15035621 11 6 C11.5775 6.5775 12.155 7.155 12.75 7.75 C13.1625 8.1625 13.575 8.575 14 9 C11.36 9 8.72 9 6 9 C5.84144531 9.65484375 5.68289062 10.3096875 5.51953125 10.984375 C2.52412636 22.70120739 -2.47057251 33.28317147 -8 44 C-15.1550152 41.88601824 -15.1550152 41.88601824 -18 39 C-19.41454854 29.84079821 -14.65286249 17.95968708 -9.625 10.5625 C-6.70536109 6.69697376 -3.55016638 3.29039811 0 0 Z " fill="#5580A1" transform="translate(87,108)"/>
<path d="M0 0 C0.66 0 1.32 0 2 0 C2.66 1.32 3.32 2.64 4 4 C4.33 2.68 4.66 1.36 5 0 C8.40312738 1.05875074 11.01353231 2.00902154 14 4 C14 6.97 14 9.94 14 13 C20.6 13.33 27.2 13.66 34 14 C34 17.3 34 20.6 34 24 C35.26457031 24.29003906 35.26457031 24.29003906 36.5546875 24.5859375 C37.65039062 24.84632813 38.74609375 25.10671875 39.875 25.375 C41.51082031 25.75785156 41.51082031 25.75785156 43.1796875 26.1484375 C46 27 46 27 48 29 C44.88907275 32.11092725 34.36291689 30.97204538 30 31 C20.99429487 30.52487887 14.14171564 27.41783002 7.94921875 20.8125 C5.52612847 17.31625752 4.165083 13.80144571 2.75 9.8125 C2.481875 9.08869141 2.21375 8.36488281 1.9375 7.61914062 C0 2.30584343 0 2.30584343 0 0 Z " fill="#486982" transform="translate(10,187)"/>
<path d="M0 0 C5.28 0 10.56 0 16 0 C16.495 1.98 16.495 1.98 17 4 C17.99 4 18.98 4 20 4 C20 7.3 20 10.6 20 14 C18.22888156 13.52188823 16.45811517 13.0424722 14.6875 12.5625 C13.70136719 12.29566406 12.71523437 12.02882813 11.69921875 11.75390625 C9.78482474 11.21920575 7.88566385 10.62855462 6 10 C6 12.97 6 15.94 6 19 C1.05 19 -3.9 19 -9 19 C-8.6390625 20.19238281 -8.278125 21.38476562 -7.90625 22.61328125 C-7.43728533 24.17962324 -6.96854711 25.74603305 -6.5 27.3125 C-6.26152344 28.09818359 -6.02304687 28.88386719 -5.77734375 29.69335938 C-5.55175781 30.45068359 -5.32617188 31.20800781 -5.09375 31.98828125 C-4.77954102 33.03302612 -4.77954102 33.03302612 -4.45898438 34.09887695 C-4 36 -4 36 -4 39 C-5.75140143 38.54705135 -7.50107344 38.08741252 -9.25 37.625 C-10.22453125 37.36976562 -11.1990625 37.11453125 -12.203125 36.8515625 C-14.65837303 36.10401491 -16.75617405 35.22876183 -19 34 C-18.85764543 32.27054347 -18.71095618 30.54144346 -18.5625 28.8125 C-18.48128906 27.84957031 -18.40007813 26.88664062 -18.31640625 25.89453125 C-18.02333849 23.21350398 -17.57296246 20.6337014 -17 18 C-16.01 18 -15.02 18 -14 18 C-14 16.68 -14 15.36 -14 14 C-10.7 14 -7.4 14 -4 14 C-3.79503906 13.24074219 -3.59007812 12.48148438 -3.37890625 11.69921875 C-2.97478516 10.20841797 -2.97478516 10.20841797 -2.5625 8.6875 C-2.29566406 7.70136719 -2.02882813 6.71523437 -1.75390625 5.69921875 C-1.21920575 3.78482474 -0.62855462 1.88566385 0 0 Z " fill="#A2B1BD" transform="translate(53,69)"/>
<path d="M0 0 C4.90075379 1.02403811 9.37964652 2.04681327 14 4 C13.45089248 13.82713114 11.81857774 23.3466691 10 33 C7.98863724 30.44008376 6.37154504 27.95409701 5 25 C4.25234375 25.20496094 3.5046875 25.40992187 2.734375 25.62109375 C1.74953125 25.89050781 0.7646875 26.15992187 -0.25 26.4375 C-1.22453125 26.70433594 -2.1990625 26.97117187 -3.203125 27.24609375 C-5.46372653 27.85544584 -7.72622009 28.44238255 -10 29 C-10.65264429 26.98135603 -11.29678746 24.95996273 -11.9375 22.9375 C-12.29714844 21.81214844 -12.65679687 20.68679687 -13.02734375 19.52734375 C-14 16 -14 16 -15 9 C-10.05 9 -5.1 9 0 9 C0 6.03 0 3.06 0 0 Z " fill="#2C698E" transform="translate(59,79)"/>
<path d="M0 0 C0.984375 2.328125 0.984375 2.328125 1.75 5.25 C2.14445312 6.68085937 2.14445312 6.68085937 2.546875 8.140625 C3.03882078 11.24497252 3.07431326 13.04684293 2 16 C-0.07421875 18.09765625 -0.07421875 18.09765625 -2.6875 20.0625 C-3.53699219 20.71347656 -4.38648438 21.36445312 -5.26171875 22.03515625 C-6.61716797 23.00775391 -6.61716797 23.00775391 -8 24 C-8.9384375 24.7425 -9.876875 25.485 -10.84375 26.25 C-14.68382977 28.37915314 -17.5826971 28.37206189 -21.8125 27.9375 C-22.51375 27.88021729 -23.215 27.82293457 -23.9375 27.76391602 C-29.34472709 27.2485553 -33.99603419 26.05520024 -39 24 C-35.87124567 21.91416378 -33.62998305 21.28716515 -30 20.4375 C-26.94244963 19.71432939 -23.98151712 18.99383904 -21 18 C-20.23057485 15.75560137 -19.55778617 13.47760597 -18.9375 11.1875 C-17.78557289 7.43833871 -16.83774076 4.61121566 -13.55859375 2.21875 C-11.04055869 1.25112081 -8.63772492 0.54989859 -6 0 C-3 -1 -3 -1 0 0 Z " fill="#F9FAFA" transform="translate(251,104)"/>
<path d="M0 0 C0.83265381 0.00523682 1.66530762 0.01047363 2.52319336 0.01586914 C3.33280518 0.0183667 4.14241699 0.02086426 4.9765625 0.0234375 C6.01159912 0.0325415 7.04663574 0.04164551 8.11303711 0.05102539 C11.39241211 0.07165039 14.67178711 0.09227539 18.05053711 0.11352539 C18.05053711 8.03352539 18.05053711 15.95352539 18.05053711 24.11352539 C10.13053711 24.11352539 2.21053711 24.11352539 -5.94946289 24.11352539 C-4.81100135 11.59044847 -4.81100135 11.59044847 -3.94946289 6.48852539 C-3.70196289 4.98418945 -3.70196289 4.98418945 -3.44946289 3.44946289 C-2.74533651 0.15987245 -2.74533651 0.15987245 0 0 Z " fill="#E0383D" transform="translate(94.949462890625,117.886474609375)"/>
<path d="M0 0 C1.00023193 0.00523682 2.00046387 0.01047363 3.03100586 0.01586914 C4.1105957 0.0190918 5.19018555 0.02231445 6.30249023 0.02563477 C8.00695312 0.03820312 8.00695312 0.03820312 9.74584961 0.05102539 C11.45611328 0.05779297 11.45611328 0.05779297 13.20092773 0.06469727 C16.02845312 0.07652792 18.85587601 0.09301129 21.68334961 0.11352539 C21.04072459 3.07258943 20.39440351 6.03076056 19.74584961 8.98852539 C19.56344727 9.8302832 19.38104492 10.67204102 19.19311523 11.53930664 C19.01586914 12.3449707 18.83862305 13.15063477 18.65600586 13.98071289 C18.49366455 14.72434082 18.33132324 15.46796875 18.1640625 16.23413086 C17.68334961 18.11352539 17.68334961 18.11352539 16.68334961 20.11352539 C10.08334961 20.11352539 3.48334961 20.11352539 -3.31665039 20.11352539 C-3.34758789 15.44196289 -3.34758789 15.44196289 -3.37915039 10.67602539 C-3.38825439 9.6931958 -3.3973584 8.71036621 -3.40673828 7.69775391 C-3.40923584 6.92874756 -3.4117334 6.15974121 -3.41430664 5.36743164 C-3.42216187 4.18129272 -3.42216187 4.18129272 -3.43017578 2.97119141 C-3.25825013 0.15789622 -2.81367649 0.13788171 0 0 Z " fill="#ED393C" transform="translate(174.316650390625,121.886474609375)"/>
<path d="M0 0 C0.7528125 0.07863281 1.505625 0.15726563 2.28125 0.23828125 C6.17346425 0.68685204 8.68643676 1.34321838 12.25 3.125 C-45.5 3.125 -103.25 3.125 -162.75 3.125 C-162.75 2.795 -162.75 2.465 -162.75 2.125 C-155.55967254 1.19385999 -148.47811766 0.92394773 -141.23217773 0.82788086 C-139.39607185 0.79840111 -139.39607185 0.79840111 -137.52287292 0.76832581 C-134.18775861 0.71565731 -130.85263123 0.66679721 -127.51743579 0.61974788 C-124.00417784 0.56933095 -120.490994 0.51417446 -116.97779846 0.45960999 C-111.07272303 0.36856505 -105.16760731 0.28071212 -99.26245117 0.19506836 C-91.72996353 0.08581011 -84.19756175 -0.02849728 -76.66517544 -0.14450932 C-70.13916091 -0.24499848 -63.61311407 -0.34332698 -57.08706021 -0.44122386 C-55.01526139 -0.47236811 -52.94346644 -0.50376068 -50.87167168 -0.53517342 C-9.48735796 -1.1599507 -9.48735796 -1.1599507 0 0 Z " fill="#48627B" transform="translate(231.75,35.875)"/>
<path d="M0 0 C1.24993602 3.51051176 0.76237232 5.2121691 -0.7734375 8.55078125 C-3.09170393 14.00159771 -4.44839062 19.39392545 -5.625 25.1875 C-5.83882324 26.21327148 -6.05264648 27.23904297 -6.27294922 28.29589844 C-7.94006284 36.72015647 -8.82820159 45.11597965 -9.27978516 53.68823242 C-9.33440918 54.59033447 -9.3890332 55.49243652 -9.4453125 56.421875 C-9.48156738 57.21174805 -9.51782227 58.00162109 -9.55517578 58.81542969 C-10.10169232 61.4994198 -11.33261938 62.85675779 -13 65 C-14.01856188 68.10906894 -14.12143253 70.969797 -14.11352539 74.22753906 C-14.11344986 75.26831604 -14.11337433 76.30909302 -14.11329651 77.38140869 C-14.10813522 78.49820007 -14.10297394 79.61499146 -14.09765625 80.765625 C-14.0962413 81.91415955 -14.09482635 83.06269409 -14.09336853 84.24603271 C-14.08777143 87.91404831 -14.07521944 91.58200285 -14.0625 95.25 C-14.05748463 97.73697829 -14.05292178 100.22395753 -14.04882812 102.7109375 C-14.03780295 108.8073125 -14.02106769 114.90365189 -14 121 C-27.27794013 96.31354053 -14.73636533 44.35333254 -7.55859375 18.90234375 C-5.56427528 12.362657 -3.04044084 6.12400851 0 0 Z " fill="#2E6589" transform="translate(24,63)"/>
<path d="M0 0 C-1.65 4.62 -3.3 9.24 -5 14 C-8.3 14 -11.6 14 -15 14 C-15 15.32 -15 16.64 -15 18 C-16.98 18.33 -18.96 18.66 -21 19 C-20.33691124 12.36911243 -18.30334166 6.9027605 -13.125 2.625 C-5.45454545 -1.36363636 -5.45454545 -1.36363636 0 0 Z " fill="#F6F7F7" transform="translate(54,69)"/>
<path d="M0 0 C1.2415174 3.49670074 0.77363285 5.16575744 -0.76953125 8.484375 C-3.24034171 14.27829269 -4.4920334 20.08431372 -5.6875 26.25 C-5.89955078 27.29929687 -6.11160156 28.34859375 -6.33007812 29.4296875 C-7.30198764 34.27390526 -8.23406448 39.11821319 -9 44 C-9.66 44 -10.32 44 -11 44 C-12.77980028 37.84968423 -11.00346125 32.50300674 -9.4375 26.5 C-9.16663574 25.43587891 -8.89577148 24.37175781 -8.61669922 23.27539062 C-6.46750626 15.12456083 -3.74868449 7.5505418 0 0 Z " fill="#295574" transform="translate(24,63)"/>
<path d="M0 0 C1.9375 0.3125 1.9375 0.3125 4 1 C5 4 5 4 4.19555664 6.0847168 C3.77137451 6.86500244 3.34719238 7.64528809 2.91015625 8.44921875 C2.45576172 9.29677734 2.00136719 10.14433594 1.53320312 11.01757812 C1.04787109 11.89865234 0.56253906 12.77972656 0.0625 13.6875 C-0.65969727 15.02651367 -0.65969727 15.02651367 -1.39648438 16.39257812 C-2.58876897 18.60007534 -3.79017894 20.80207933 -5 23 C-6.36724819 20.26550363 -5.64208017 19.11398588 -4.78515625 16.2109375 C-4.51123047 15.26992187 -4.23730469 14.32890625 -3.95507812 13.359375 C-3.66052734 12.37453125 -3.36597656 11.3896875 -3.0625 10.375 C-2.77181641 9.38242188 -2.48113281 8.38984375 -2.18164062 7.3671875 C-1.46087104 4.90948137 -0.733407 2.45395896 0 0 Z " fill="#2B5F85" transform="translate(73,150)"/>
<path d="M0 0 C1.68895794 3.37791589 2.34686406 5.18685421 2.8515625 8.765625 C2.98046875 9.65507813 3.109375 10.54453125 3.2421875 11.4609375 C3.36851562 12.38132812 3.49484375 13.30171875 3.625 14.25 C3.7590625 15.18585938 3.893125 16.12171875 4.03125 17.0859375 C4.36037599 19.38981945 4.68306149 21.69441524 5 24 C3.35 23.67 1.7 23.34 0 23 C0 15.41 0 7.82 0 0 Z " fill="#49627A" transform="translate(270,88)"/>
<path d="M0 0 C7.1720947 0.69435721 14.01245688 2.33762538 21 4.0625 C22.15628906 4.34416016 23.31257813 4.62582031 24.50390625 4.91601562 C27.33693276 5.60671217 30.16889673 6.3014699 33 7 C33 7.33 33 7.66 33 8 C25.34724575 8.94781819 18.7050142 7.32291024 11.4375 5.125 C10.54450195 4.85606934 9.65150391 4.58713867 8.73144531 4.31005859 C2.27807583 2.27807583 2.27807583 2.27807583 0 0 Z " fill="#346081" transform="translate(90,164)"/>
<path d="M0 0 C5.61584576 5.08936022 12.77059308 12.31620673 14 20 C10.28402688 16.39663213 6.9820358 12.61727798 3.74609375 8.57421875 C1.8966828 6.55359529 1.8966828 6.55359529 -2 7 C-1.34 4.69 -0.68 2.38 0 0 Z " fill="#486179" transform="translate(245,39)"/>
<path d="M0 0 C0.93423645 3.01031744 1.04449911 3.86650268 0 7 C-2.06271639 6.6889315 -4.12516466 6.37608484 -6.1875 6.0625 C-7.33605469 5.88847656 -8.48460937 5.71445313 -9.66796875 5.53515625 C-12.46325212 5.08620687 -15.22933586 4.57917838 -18 4 C-18 3.67 -18 3.34 -18 3 C-12.06 3 -6.12 3 0 3 C0 2.01 0 1.02 0 0 Z " fill="#2E6186" transform="translate(69,139)"/>
<path d="M0 0 C0 0.33 0 0.66 0 1 C2.31 1.33 4.62 1.66 7 2 C7 2.33 7 2.66 7 3 C2.05 3 -2.9 3 -8 3 C-8.33 2.34 -8.66 1.68 -9 1 C-5.92677456 0.08941469 -3.19902639 -0.08886184 0 0 Z " fill="#D2DCE2" transform="translate(62,66)"/>
<path d="M0 0 C0.66 0 1.32 0 2 0 C4.21854707 4.62197306 5.38281159 7.76824163 5 13 C2.53698577 10.53698577 2.23233479 8.72639964 1.375 5.375 C1.11460938 4.37210938 0.85421875 3.36921875 0.5859375 2.3359375 C0.39257812 1.56507813 0.19921875 0.79421875 0 0 Z " fill="#2B5A7A" transform="translate(10,187)"/>
<path d="M0 0 C3.96 0 7.92 0 12 0 C12 0.99 12 1.98 12 3 C7.18550592 2.51855059 4.39828259 2.1991413 0 0 Z " fill="#7CA4BD" transform="translate(57,69)"/>
<path d="M0 0 C3.3 0 6.6 0 10 0 C10 0.33 10 0.66 10 1 C8.35 1 6.7 1 5 1 C5 2.98 5 4.96 5 7 C2 3.25 2 3.25 2 1 C1.34 0.67 0.68 0.34 0 0 Z " fill="#419ED0" transform="translate(10,186)"/>
</svg>
