<?xml version="1.0" encoding="UTF-8"?>
<svg version="1.1" xmlns="http://www.w3.org/2000/svg" width="271" height="51">
<path d="M0 0 C1.9546067 -0.02158979 3.90911647 -0.05570438 5.86328125 -0.10253906 C8.67695411 -0.16940097 11.48862426 -0.19697562 14.30297852 -0.21606445 C15.17602127 -0.24389511 16.04906403 -0.27172577 16.94856262 -0.30039978 C19.32357903 -0.29233747 21.33714593 -0.22730557 23.62719727 0.4050293 C29.54662818 7.22091111 29.80144531 14.95108095 29.93969727 23.6550293 C29.95742188 24.34064941 29.97514648 25.02626953 29.9934082 25.73266602 C29.98699735 30.11021288 29.40761293 32.9784607 26.62719727 36.4050293 C23.68969727 36.9675293 23.68969727 36.9675293 20.62719727 36.4050293 C17.29531128 33.9061148 15.93059872 31.31523366 14.62719727 27.4050293 C12.92563477 27.4359668 12.92563477 27.4359668 11.18969727 27.4675293 C7.62719727 27.4050293 7.62719727 27.4050293 6.62719727 26.4050293 C3.12719727 26.23836263 3.12719727 26.23836263 -0.37280273 26.4050293 C-0.70280273 26.7350293 -1.03280273 27.0650293 -1.37280273 27.4050293 C-4.04339124 27.54618091 -6.69712511 27.44750037 -9.37280273 27.4050293 C-9.64092773 28.1475293 -9.90905273 28.8900293 -10.18530273 29.6550293 C-11.36871362 32.39555976 -12.22218636 34.33122065 -14.37280273 36.4050293 C-17.61967247 36.87853113 -19.48103075 37.05079522 -22.18530273 35.0925293 C-26.4289085 29.06214216 -24.68682479 19.40380007 -23.62280273 12.5300293 C-20.81278776 -1.45939776 -12.1683316 0.10120682 0 0 Z " fill="#49637C" transform="translate(26.372802734375,7.594970703125)"/>
<path d="M0 0 C3.25 -0.375 3.25 -0.375 7 0 C10.43061177 3.89842247 12.2991381 8.60733239 14.25 13.375 C14.518125 14.01566406 14.78625 14.65632813 15.0625 15.31640625 C15.71396273 16.8752635 16.35779672 18.43730535 17 20 C17.55429688 18.89140625 18.10859375 17.7828125 18.6796875 16.640625 C21.453125 11.09375 24.2265625 5.546875 27 0 C29.31 0 31.62 0 34 0 C35.26083999 2.52167999 35.3109201 4.56824635 35.53515625 7.3828125 C35.66567383 9.01089844 35.66567383 9.01089844 35.79882812 10.671875 C35.9293457 12.38117187 35.9293457 12.38117187 36.0625 14.125 C36.15337891 15.24132813 36.24425781 16.35765625 36.33789062 17.5078125 C36.79669276 23.3584021 37.10760707 29.1318276 37 35 C34.69 35 32.38 35 30 35 C29.34 28.07 28.68 21.14 28 14 C25.73873858 19.21945978 25.73873858 19.21945978 23.48266602 24.44116211 C21.11111111 29.88888889 21.11111111 29.88888889 20 31 C18.35 31 16.7 31 15 31 C12.36 25.72 9.72 20.44 7 15 C6.13580777 17.59257669 5.82419068 19.34037707 5.68359375 22.01171875 C5.64169922 22.76904297 5.59980469 23.52636719 5.55664062 24.30664062 C5.51732422 25.09232422 5.47800781 25.87800781 5.4375 26.6875 C5.39431641 27.48478516 5.35113281 28.28207031 5.30664062 29.10351562 C5.20072632 31.06881447 5.09987449 33.03438496 5 35 C2.69 35 0.38 35 -2 35 C-2.29366149 23.17196766 -1.4286661 11.73547157 0 0 Z " fill="#E0E0E0" transform="translate(69,6)"/>
<path d="M0 0 C2.83651561 0.55983861 3.72209454 1.11335973 5.375 3.46875 C5.705 5.11875 6.035 6.76875 6.375 8.46875 C11.985 8.46875 17.595 8.46875 23.375 8.46875 C23.045 10.44875 22.715 12.42875 22.375 14.46875 C21.715 14.13875 21.055 13.80875 20.375 13.46875 C20.705 12.47875 21.035 11.48875 21.375 10.46875 C20.385 10.46875 19.395 10.46875 18.375 10.46875 C18.705 11.45875 19.035 12.44875 19.375 13.46875 C17.4375 16.15625 17.4375 16.15625 15.375 18.46875 C14.385 18.13875 13.395 17.80875 12.375 17.46875 C12.0028958 16.14571283 11.66869827 14.81137065 11.375 13.46875 C10.715 13.13875 10.055 12.80875 9.375 12.46875 C10.035 12.46875 10.695 12.46875 11.375 12.46875 C11.375 11.80875 11.375 11.14875 11.375 10.46875 C10.385 10.46875 9.395 10.46875 8.375 10.46875 C8.375 11.12875 8.375 11.78875 8.375 12.46875 C7.055 12.46875 5.735 12.46875 4.375 12.46875 C2.3242907 14.69523438 0.72858597 16.76157805 -0.625 19.46875 C-1.945 19.46875 -3.265 19.46875 -4.625 19.46875 C-3.965 22.43875 -3.305 25.40875 -2.625 28.46875 C-1.635 25.82875 -0.645 23.18875 0.375 20.46875 C1.035 20.79875 1.695 21.12875 2.375 21.46875 C2.375 22.12875 2.375 22.78875 2.375 23.46875 C4.355 23.79875 6.335 24.12875 8.375 24.46875 C8.375 24.79875 8.375 25.12875 8.375 25.46875 C6.395 25.46875 4.415 25.46875 2.375 25.46875 C2.106875 26.21125 1.83875 26.95375 1.5625 27.71875 C0.37908912 30.45928046 -0.47438363 32.39494135 -2.625 34.46875 C-5.87186974 34.94225184 -7.73322802 35.11451592 -10.4375 33.15625 C-14.70025076 27.09865682 -12.93387554 17.41836478 -11.8125 10.53125 C-10.03426002 2.27257839 -8.67784216 -0.10330764 0 0 Z " fill="#215273" transform="translate(14.625,9.53125)"/>
<path d="M0 0 C3.19319495 2.20482508 3.5817951 3.10332704 4.625 6.8125 C4.85687562 10.0883832 4.81363098 13.34310967 4.75 16.625 C4.74097656 17.50865234 4.73195312 18.39230469 4.72265625 19.30273438 C4.69919637 21.47277359 4.66332865 23.64267247 4.625 25.8125 C-9.61060626 28.37286084 -9.61060626 28.37286084 -15.375 24.8125 C-17.75728107 21.95376272 -18.38878017 20.48772816 -18.3125 16.75 C-17.17128372 13.17418898 -16.52869309 11.88932228 -13.375 9.8125 C-10.04817382 9.191005 -6.75403974 8.94147098 -3.375 8.8125 C-3.705 7.8225 -4.035 6.8325 -4.375 5.8125 C-5.08527344 5.82410156 -5.79554687 5.83570313 -6.52734375 5.84765625 C-7.44644531 5.85667969 -8.36554688 5.86570312 -9.3125 5.875 C-10.22902344 5.88660156 -11.14554687 5.89820313 -12.08984375 5.91015625 C-14.375 5.8125 -14.375 5.8125 -15.375 4.8125 C-15.41563832 3.14632885 -15.417721 1.47861905 -15.375 -0.1875 C-10.1507855 -1.92890483 -5.11266869 -1.79890195 0 0 Z M-10.375 14.8125 C-10.705 15.8025 -11.035 16.7925 -11.375 17.8125 C-10.385 19.2975 -10.385 19.2975 -9.375 20.8125 C-5.79142759 21.06265873 -5.79142759 21.06265873 -2.375 20.8125 C-2.375 18.8325 -2.375 16.8525 -2.375 14.8125 C-5.37772755 13.84733757 -7.41715769 13.58856525 -10.375 14.8125 Z " fill="#DFDFDF" transform="translate(128.375,15.1875)"/>
<path d="M0 0 C3.57735296 2.20730289 5.41840589 4.15006697 7 8 C7.74549479 13.86714084 7.49727901 19.05557105 4 24 C0.19278852 27.46110135 -3.7021264 27.45694497 -8.62890625 27.28125 C-11.83098709 26.90143151 -13.60659048 26.17582683 -16 24 C-19.52123536 19.02170173 -19.85343757 13.89734947 -19 8 C-17.22128603 4.23733583 -15.66862969 2.48203536 -12.3125 0.0625 C-7.92156804 -1.34591214 -4.4347481 -1.21096443 0 0 Z M-10.25 6.5 C-12.70066455 10.00094936 -12.68879848 12.85020175 -12 17 C-11.06756129 19.57951684 -11.06756129 19.57951684 -9 21 C-6 21.66666667 -6 21.66666667 -3 21 C-0.22918563 18.69098803 -0.01870057 17.14693304 0.4375 13.5625 C-0.07031368 9.42744578 -0.94729685 7.79831122 -4 5 C-7.89599371 4.63019987 -7.89599371 4.63019987 -10.25 6.5 Z " fill="#DCDCDC" transform="translate(213,15)"/>
<path d="M0 0 C2.31 0 4.62 0 7 0 C7.83719383 2.29032311 8.6698929 4.58210957 9.5 6.875 C9.73847656 7.52597656 9.97695312 8.17695313 10.22265625 8.84765625 C12 13.7734375 12 13.7734375 12 16 C12.66 16 13.32 16 14 16 C14.12117188 15.43152344 14.24234375 14.86304688 14.3671875 14.27734375 C15.41322054 9.45754536 16.59204484 4.7267066 18 0 C20.31 0 22.62 0 25 0 C24.40919599 6.23341044 22.52847131 11.66502154 20.3125 17.5 C19.98572266 18.41136719 19.65894531 19.32273437 19.32226562 20.26171875 C17.18111244 25.93597938 14.83375293 31.12772926 10 35 C7.2265625 35.68359375 7.2265625 35.68359375 4.625 35.4375 C3.31402344 35.34275391 3.31402344 35.34275391 1.9765625 35.24609375 C1.32429687 35.16488281 0.67203125 35.08367188 0 35 C-1 32 -1 32 0 29 C1.670625 28.8453125 1.670625 28.8453125 3.375 28.6875 C4.57125 28.460625 5.7675 28.23375 7 28 C7.66 27.01 8.32 26.02 9 25 C8.0287168 22.33196898 6.9886133 19.9146091 5.75 17.375 C3.06547764 11.6067553 1.01635384 6.32397942 0 0 Z " fill="#E1E0E0" transform="translate(244,15)"/>
<path d="M0 0 C0.98484375 0.01804688 1.9696875 0.03609375 2.984375 0.0546875 C4.10585937 0.08949219 4.10585937 0.08949219 5.25 0.125 C6.49546405 2.61592811 6.0267578 3.53580733 5.25 6.125 C2.61 6.455 -0.03 6.785 -2.75 7.125 C-3.41 9.105 -4.07 11.085 -4.75 13.125 C-1.78 13.125 1.19 13.125 4.25 13.125 C4.25 14.775 4.25 16.425 4.25 18.125 C1.28 18.125 -1.69 18.125 -4.75 18.125 C-4.75 25.055 -4.75 31.985 -4.75 39.125 C-7.06 39.125 -9.37 39.125 -11.75 39.125 C-11.79950925 34.49855096 -11.83577116 29.87225682 -11.85986328 25.24560547 C-11.86990887 23.67233595 -11.88354781 22.09908504 -11.90087891 20.52587891 C-11.92519096 18.26199748 -11.93649747 15.99836334 -11.9453125 13.734375 C-11.95563507 13.03318542 -11.96595764 12.33199585 -11.97659302 11.60955811 C-11.97742913 7.95440874 -11.84894076 5.18708298 -9.75 2.125 C-6.57223091 -0.11068711 -3.81004355 -0.09071532 0 0 Z " fill="#DBDBDB" transform="translate(237.75,1.875)"/>
<path d="M0 0 C0.33 0.99 0.66 1.98 1 3 C1.66 3 2.32 3 3 3 C3 2.34 3 1.68 3 1 C3.99 1 4.98 1 6 1 C6.144375 1.78375 6.28875 2.5675 6.4375 3.375 C6.87798925 5.96421018 6.87798925 5.96421018 8 8 C10.12364481 8.22609337 10.12364481 8.22609337 11.625 6.5 C12.07875 6.005 12.5325 5.51 13 5 C12.9071875 6.670625 12.9071875 6.670625 12.8125 8.375 C12.874375 9.57125 12.93625 10.7675 13 12 C15.76148156 14.31140296 15.76148156 14.31140296 18.5625 13.6875 C20.98114611 13.08760162 20.98114611 13.08760162 23 12 C23.66 13.98 24.32 15.96 25 18 C25.66 18 26.32 18 27 18 C27.66 18 28.32 18 29 18 C28.95359375 17.38511719 28.9071875 16.77023438 28.859375 16.13671875 C28.75067201 13.70254825 28.70815027 11.42063598 29 9 C31 6.9375 31 6.9375 33 6 C32.67 7.98 32.34 9.96 32 12 C32.66 12 33.32 12 34 12 C34.66 10.68 35.32 9.36 36 8 C36.08160748 9.89510699 36.13946459 11.79124504 36.1875 13.6875 C36.23970703 15.27111328 36.23970703 15.27111328 36.29296875 16.88671875 C35.96193148 20.40454151 35.1647026 22.22837143 33 25 C30.0625 25.5625 30.0625 25.5625 27 25 C23.66811401 22.50108551 22.30340145 19.91020436 21 16 C19.865625 16.020625 18.73125 16.04125 17.5625 16.0625 C14 16 14 16 13 15 C9.33655389 14.86431681 6.49384279 14.83538574 3 16 C-0.125 15.1875 -0.125 15.1875 -3 14 C-3.33 13.34 -3.66 12.68 -4 12 C-5.32 14.64 -6.64 17.28 -8 20 C-9.9955516 16.00889681 -10.19546065 14.30013434 -10 10 C-8.68 10 -7.36 10 -6 10 C-5.7525 9.278125 -5.505 8.55625 -5.25 7.8125 C-3.89016326 4.75286734 -2.17082246 2.5326262 0 0 Z " fill="#2C5D82" transform="translate(20,19)"/>
<path d="M0 0 C1.4540625 0.0309375 1.4540625 0.0309375 2.9375 0.0625 C2.9375 2.7025 2.9375 5.3425 2.9375 8.0625 C6.2375 8.0625 9.5375 8.0625 12.9375 8.0625 C12.9375 9.7125 12.9375 11.3625 12.9375 13.0625 C9.6375 13.0625 6.3375 13.0625 2.9375 13.0625 C3.07819196 15.18784659 3.22520921 17.31277529 3.375 19.4375 C3.45621094 20.62085937 3.53742188 21.80421875 3.62109375 23.0234375 C3.74834936 25.97768901 3.74834936 25.97768901 4.9375 28.0625 C7.5775 28.0625 10.2175 28.0625 12.9375 28.0625 C13.2675 29.7125 13.5975 31.3625 13.9375 33.0625 C10.28137956 35.40241708 7.20542624 35.43687949 2.9375 35.0625 C-0.20645055 33.73505421 -1.64353552 32.89477836 -3.18481445 29.83300781 C-4.17222225 26.71615003 -4.30566923 24.18813851 -4.29296875 20.921875 C-4.29103516 19.76945312 -4.28910156 18.61703125 -4.28710938 17.4296875 C-4.26874023 15.63917969 -4.26874023 15.63917969 -4.25 13.8125 C-4.24935547 12.60335938 -4.24871094 11.39421875 -4.24804688 10.1484375 C-4.19716765 0.08565648 -4.19716765 0.08565648 0 0 Z " fill="#DFDFDF" transform="translate(157.0625,6.9375)"/>
<path d="M0 0 C0.75539062 0.00644531 1.51078125 0.01289063 2.2890625 0.01953125 C4.375 0.1875 4.375 0.1875 7.375 1.1875 C7.045 3.1675 6.715 5.1475 6.375 7.1875 C3.735 7.1875 1.095 7.1875 -1.625 7.1875 C-1.955 13.7875 -2.285 20.3875 -2.625 27.1875 C-4.935 27.1875 -7.245 27.1875 -9.625 27.1875 C-9.625 18.9375 -9.625 10.6875 -9.625 2.1875 C-3.96872436 -0.07501025 -3.96872436 -0.07501025 0 0 Z " fill="#D6D6D6" transform="translate(184.625,13.8125)"/>
<path d="M0 0 C13.53 0 27.06 0 41 0 C40.67 0.99 40.34 1.98 40 3 C36.7 3 33.4 3 30 3 C29.34 5.31 28.68 7.62 28 10 C22.72 10 17.44 10 12 10 C11.34 7.69 10.68 5.38 10 3 C6.37 3 2.74 3 -1 3 C-0.67 2.01 -0.34 1.02 0 0 Z " fill="#814F5A" transform="translate(9,8)"/>
<path d="M0 0 C2.31 0 4.62 0 7 0 C7 8.58 7 17.16 7 26 C4.69 26 2.38 26 0 26 C0 17.42 0 8.84 0 0 Z " fill="#FAFAFA" transform="translate(140,15)"/>
<path d="M0 0 C1 2 1 2 0.875 4.5 C0.91625 5.325 0.9575 6.15 1 7 C3.76148156 9.31140296 3.76148156 9.31140296 6.5625 8.6875 C8.98114611 8.08760162 8.98114611 8.08760162 11 7 C11.66 8.98 12.32 10.96 13 13 C13.66 13 14.32 13 15 13 C15.66 13 16.32 13 17 13 C16.95359375 12.38511719 16.9071875 11.77023438 16.859375 11.13671875 C16.75067201 8.70254825 16.70815027 6.42063598 17 4 C19 1.9375 19 1.9375 21 1 C20.67 2.98 20.34 4.96 20 7 C20.66 7 21.32 7 22 7 C22.66 5.68 23.32 4.36 24 3 C24.08160748 4.89510699 24.13946459 6.79124504 24.1875 8.6875 C24.23970703 10.27111328 24.23970703 10.27111328 24.29296875 11.88671875 C23.96193148 15.40454151 23.1647026 17.22837143 21 20 C18.0625 20.5625 18.0625 20.5625 15 20 C11.66811401 17.50108551 10.30340145 14.91020436 9 11 C7.4840625 11.061875 7.4840625 11.061875 5.9375 11.125 C1.81923948 10.99426157 -1.11830533 10.26749214 -5 9 C-4.01 8.67 -3.02 8.34 -2 8 C-1.855625 6.865625 -1.71125 5.73125 -1.5625 4.5625 C-1 1 -1 1 0 0 Z " fill="#40617A" transform="translate(32,24)"/>
<path d="M0 0 C0.99 0.33 1.98 0.66 3 1 C3 1.99 3 2.98 3 4 C3.66 4 4.32 4 5 4 C5 2.68 5 1.36 5 0 C8.72095185 1.7364442 10.58720024 2.8830124 12.0625 6.875 C12.371875 7.90625 12.68125 8.9375 13 10 C13.19335938 10.60585938 13.38671875 11.21171875 13.5859375 11.8359375 C14.11239688 14.58743275 13.86047034 16.96894348 13.5625 19.75 C13.46066406 20.73484375 13.35882813 21.7196875 13.25390625 22.734375 C13.17011719 23.48203125 13.08632813 24.2296875 13 25 C12.67 25 12.34 25 12 25 C12 22.69 12 20.38 12 18 C11.34 18 10.68 18 10 18 C10 15.69 10 13.38 10 11 C9.443125 11.515625 8.88625 12.03125 8.3125 12.5625 C6 14 6 14 3.5 13.9375 C0.39464639 12.7729924 -1.04118767 11.68429838 -3 9 C-3.4375 5.9375 -3.4375 5.9375 -3 3 C-1.5 1.125 -1.5 1.125 0 0 Z " fill="#C3D5E0" transform="translate(42,13)"/>
<path d="M0 0 C3.625 0.25 3.625 0.25 5.5 1.4375 C7.03533813 3.91110032 7.625 5.30027516 7.625 8.25 C5.5625 11.5625 5.5625 11.5625 2.625 14.25 C-0.67326647 14.84368796 -2.36477384 14.91187231 -5.1875 13.0625 C-6.74427163 10.68637488 -7.2393141 9.09940381 -7.375 6.25 C-4.41346154 0.32692308 -4.41346154 0.32692308 0 0 Z " fill="#78A3BD" transform="translate(12.375,12.75)"/>
<path d="M0 0 C3.625 0.375 3.625 0.375 7 1 C7.66 3.31 8.32 5.62 9 8 C14.61 8 20.22 8 26 8 C25.67 9.98 25.34 11.96 25 14 C24.34 13.67 23.68 13.34 23 13 C23.33 12.01 23.66 11.02 24 10 C23.01 10 22.02 10 21 10 C21.33 10.99 21.66 11.98 22 13 C20.0625 15.6875 20.0625 15.6875 18 18 C17.01 17.67 16.02 17.34 15 17 C14.6278958 15.67696283 14.29369827 14.34262065 14 13 C13.34 12.67 12.68 12.34 12 12 C12.66 12 13.32 12 14 12 C14 11.34 14 10.68 14 10 C13.01 10 12.02 10 11 10 C11 10.66 11 11.32 11 12 C10.34 12 9.68 12 9 12 C6.76362469 9.76362469 6.16152029 7.90380073 5 5 C2.64046906 2.64046906 1.22104383 2.50858587 -2 2 C-1.34 1.34 -0.68 0.68 0 0 Z " fill="#2B87BE" transform="translate(12,10)"/>
<path d="M0 0 C2.48046875 1.578125 2.48046875 1.578125 5 4 C5.48828125 7.234375 5.48828125 7.234375 5.3125 10.75 C5.26738281 11.92046875 5.22226563 13.0909375 5.17578125 14.296875 C5.11777344 15.18890625 5.05976563 16.0809375 5 17 C1 17 1 17 -0.73046875 15.87890625 C-2.54245226 13.19717065 -2.363139 11.14333831 -2.3125 7.9375 C-2.30863281 6.87402344 -2.30476562 5.81054688 -2.30078125 4.71484375 C-2 2 -2 2 0 0 Z " fill="#2CA2E0" transform="translate(4,24)"/>
<path d="M0 0 C2.75328098 2.37783357 3.96944911 4.51198161 5 8 C5.07646165 10.3320802 5.09143299 12.66845878 5 15 C3 13 3 13 2.125 10.0625 C0.90901122 6.75230833 -0.03639805 5.77816117 -3 4 C-2.67 5.32 -2.34 6.64 -2 8 C-3.32 8 -4.64 8 -6 8 C-6 7.01 -6 6.02 -6 5 C-6.928125 5.4640625 -6.928125 5.4640625 -7.875 5.9375 C-9.25 6.625 -10.625 7.3125 -12 8 C-11.625 5.0625 -11.625 5.0625 -11 2 C-8.70961976 0.85480988 -7.46931463 0.92648088 -4.9375 1 C-3.638125 1 -2.33875 1 -1 1 C-0.67 0.67 -0.34 0.34 0 0 Z " fill="#7090A7" transform="translate(50,9)"/>
<path d="M0 0 C3.625 0.25 3.625 0.25 5.5 1.4375 C7.03533813 3.91110032 7.625 5.30027516 7.625 8.25 C5.5625 11.5625 5.5625 11.5625 2.625 14.25 C-0.67326647 14.84368796 -2.36477384 14.91187231 -5.1875 13.0625 C-6.74427163 10.68637488 -7.2393141 9.09940381 -7.375 6.25 C-4.41346154 0.32692308 -4.41346154 0.32692308 0 0 Z M-1.375 1.25 C-1.705 2.24 -2.035 3.23 -2.375 4.25 C-3.365 4.58 -4.355 4.91 -5.375 5.25 C-5.045 6.57 -4.715 7.89 -4.375 9.25 C-3.715 9.25 -3.055 9.25 -2.375 9.25 C-2.045 10.24 -1.715 11.23 -1.375 12.25 C-0.055 11.92 1.265 11.59 2.625 11.25 C2.625 10.59 2.625 9.93 2.625 9.25 C3.615 8.92 4.605 8.59 5.625 8.25 C5.295 6.93 4.965 5.61 4.625 4.25 C3.965 4.25 3.305 4.25 2.625 4.25 C2.295 3.26 1.965 2.27 1.625 1.25 C0.635 1.25 -0.355 1.25 -1.375 1.25 Z " fill="#FBFBFB" transform="translate(12.375,12.75)"/>
<path d="M0 0 C1.125 3.75 1.125 3.75 0 6 C0.66 6 1.32 6 2 6 C2.02689216 7.47906892 2.04634621 8.95827483 2.0625 10.4375 C2.07410156 11.26121094 2.08570313 12.08492187 2.09765625 12.93359375 C2 15 2 15 1 16 C-0.66617115 16.04063832 -2.33388095 16.042721 -4 16 C-3.91291962 13.89505699 -3.80474307 11.79097858 -3.6875 9.6875 C-3.62949219 8.51574219 -3.57148437 7.34398437 -3.51171875 6.13671875 C-2.98395232 2.9016314 -2.57619276 1.91315119 0 0 Z " fill="#259FDF" transform="translate(52,25)"/>
<path d="M0 0 C4.62 0 9.24 0 14 0 C13.01 0.495 13.01 0.495 12 1 C11.67 1.99 11.34 2.98 11 4 C9 6 9 6 7.0546875 6.1953125 C5.03645833 6.13020833 3.01822917 6.06510417 1 6 C0.67 4.02 0.34 2.04 0 0 Z " fill="#F75A5D" transform="translate(21,11)"/>
<path d="M0 0 C3 0.125 3 0.125 4 1.125 C4.1875 3.5625 4.1875 3.5625 4 6.125 C3.34 6.785 2.68 7.445 2 8.125 C-2.55555556 7.56944444 -2.55555556 7.56944444 -4 6.125 C-4.125 3.625 -4.125 3.625 -4 1.125 C-3 0.125 -3 0.125 0 0 Z " fill="#CAC9C9" transform="translate(143,2.875)"/>
<path d="M0 0 C2.625 0.375 2.625 0.375 5 1 C6.125 5.75 6.125 5.75 5 8 C3.00045254 8.04254356 0.99958364 8.04080783 -1 8 C-2 7 -2 7 -2.1875 4.5625 C-2 2 -2 2 0 0 Z " fill="#5B293A" transform="translate(19,24)"/>
<path d="M0 0 C-0.33 4.95 -0.66 9.9 -1 15 C-1.33 15 -1.66 15 -2 15 C-2 12.69 -2 10.38 -2 8 C-2.66 8 -3.32 8 -4 8 C-4 5.69 -4 3.38 -4 1 C-4.556875 1.515625 -5.11375 2.03125 -5.6875 2.5625 C-8 4 -8 4 -10.75 3.6875 C-11.4925 3.460625 -12.235 3.23375 -13 3 C-12.360625 2.896875 -11.72125 2.79375 -11.0625 2.6875 C-10.381875 2.460625 -9.70125 2.23375 -9 2 C-8.67 1.01 -8.34 0.02 -8 -1 C-5 -2 -5 -2 0 0 Z " fill="#C5DAE6" transform="translate(56,23)"/>
<path d="M0 0 C-0.33 2.31 -0.66 4.62 -1 7 C-6.28 7 -11.56 7 -17 7 C-16.67 5.68 -16.34 4.36 -16 3 C-16 3.99 -16 4.98 -16 6 C-10.76961239 5.59766249 -8.45202037 4.94516613 -5 1 C-2 0 -2 0 0 0 Z " fill="#B0242B" transform="translate(38,11)"/>
<path d="M0 0 C1.84765625 0.33984375 1.84765625 0.33984375 4.0625 0.9375 C5.16271484 1.22947266 5.16271484 1.22947266 6.28515625 1.52734375 C7.13400391 1.76130859 7.13400391 1.76130859 8 2 C8 2.33 8 2.66 8 3 C6.329375 3.309375 6.329375 3.309375 4.625 3.625 C0.83163111 4.59552416 0.83163111 4.59552416 -0.3125 7.625 C-0.6528125 9.295625 -0.6528125 9.295625 -1 11 C-1.37014364 12.4595735 -1.7452247 13.91790294 -2.125 15.375 C-2.558125 17.169375 -2.558125 17.169375 -3 19 C-3.33 19 -3.66 19 -4 19 C-4.37585163 12.20682982 -3.82681353 7.21898976 -1 1 C-0.67 0.67 -0.34 0.34 0 0 Z " fill="#627689" transform="translate(7,10)"/>
<path d="M0 0 C-0.33 0.99 -0.66 1.98 -1 3 C-4.3 3 -7.6 3 -11 3 C-11.33 3.66 -11.66 4.32 -12 5 C-12 4.34 -12 3.68 -12 3 C-12.99 3.33 -13.98 3.66 -15 4 C-17.1875 3.5625 -17.1875 3.5625 -19 3 C-19 2.34 -19 1.68 -19 1 C-12.62694402 0.25492456 -6.41688675 -0.10349817 0 0 Z " fill="#7C434D" transform="translate(50,8)"/>
<path d="M0 0 C1 2 1 2 0.875 4.5 C0.91625 5.325 0.9575 6.15 1 7 C3.76148156 9.31140296 3.76148156 9.31140296 6.5625 8.6875 C8.98114611 8.08760162 8.98114611 8.08760162 11 7 C10.67 8.65 10.34 10.3 10 12 C4.76119922 11.44854729 0.02649303 10.57077907 -5 9 C-4.01 8.67 -3.02 8.34 -2 8 C-1.855625 6.865625 -1.71125 5.73125 -1.5625 4.5625 C-1 1 -1 1 0 0 Z " fill="#26455F" transform="translate(32,24)"/>
<path d="M0 0 C2.31 0 4.62 0 7 0 C7.042721 1.66611905 7.04063832 3.33382885 7 5 C6 6 6 6 3.5 6.125 C1 6 1 6 0 5 C-0.04063832 3.33382885 -0.042721 1.66611905 0 0 Z " fill="#75232E" transform="translate(34,25)"/>
<path d="M0 0 C1.32 0 2.64 0 4 0 C4 2.64 4 5.28 4 8 C2.02 8.99 2.02 8.99 0 10 C-1.125 2.25 -1.125 2.25 0 0 Z " fill="#2D9ED9" transform="translate(44,29)"/>
<path d="M0 0 C2.475 0.495 2.475 0.495 5 1 C4.44271087 4.34373475 3.64826111 7.03312999 2 10 C-0.09350689 6.5980513 -0.17942163 3.94727588 0 0 Z " fill="#239AD9" transform="translate(10,29)"/>
<path d="M0 0 C3.625 0.375 3.625 0.375 7 1 C7.99 3.64 8.98 6.28 10 9 C9.01 9.33 8.02 9.66 7 10 C6.71125 9.21625 6.4225 8.4325 6.125 7.625 C5.15087746 4.90328368 5.15087746 4.90328368 3 3 C0.42938689 2.35232207 0.42938689 2.35232207 -2 2 C-1.34 1.34 -0.68 0.68 0 0 Z " fill="#5B9EC4" transform="translate(12,10)"/>
<path d="M0 0 C0 0.99 0 1.98 0 3 C-0.66 3.66 -1.32 4.32 -2 5 C-2.46006346 7.20250992 -2.46006346 7.20250992 -2.625 9.625 C-2.69976562 10.44226562 -2.77453125 11.25953125 -2.8515625 12.1015625 C-2.90054688 12.72804688 -2.94953125 13.35453125 -3 14 C-3.33 14 -3.66 14 -4 14 C-4 11.36 -4 8.72 -4 6 C-5.32 6 -6.64 6 -8 6 C-8.33 6.66 -8.66 7.32 -9 8 C-9.33 6.68 -9.66 5.36 -10 4 C-7.98177083 3.54427083 -5.96354167 3.08854167 -3.9453125 2.6328125 C-1.79280036 2.09525572 -1.79280036 2.09525572 0 0 Z " fill="#255373" transform="translate(52,23)"/>
<path d="M0 0 C1.22589844 0.01353516 1.22589844 0.01353516 2.4765625 0.02734375 C3.41628906 0.04474609 3.41628906 0.04474609 4.375 0.0625 C3.385 0.5575 3.385 0.5575 2.375 1.0625 C2.705 2.3825 3.035 3.7025 3.375 5.0625 C2.055 5.0625 0.735 5.0625 -0.625 5.0625 C-0.625 4.0725 -0.625 3.0825 -0.625 2.0625 C-1.24375 2.371875 -1.8625 2.68125 -2.5 3 C-3.875 3.6875 -5.25 4.375 -6.625 5.0625 C-6.625 3.7425 -6.625 2.4225 -6.625 1.0625 C-4.21954362 -0.14022819 -2.67503047 -0.03821472 0 0 Z " fill="#578CAD" transform="translate(44.625,11.9375)"/>
<path d="M0 0 C0.33 0 0.66 0 1 0 C1.08333357 4.8333472 0.95261487 9.23692563 0 14 C-0.66 14 -1.32 14 -2 14 C-2.05389087 12.04196493 -2.09274217 10.08351091 -2.125 8.125 C-2.14820313 7.03445312 -2.17140625 5.94390625 -2.1953125 4.8203125 C-2 2 -2 2 0 0 Z " fill="#CDD2D8" transform="translate(4,24)"/>
<path d="M0 0 C0.99 0.66 1.98 1.32 3 2 C2.34 2 1.68 2 1 2 C0.67 2.99 0.34 3.98 0 5 C-0.65129797 6.34090759 -1.31513275 7.67592331 -2 9 C-2.66 8.67 -3.32 8.34 -4 8 C-3.50168276 4.31245243 -2.89932357 2.39509338 0 0 Z " fill="#5480A1" transform="translate(18,22)"/>
<path d="M0 0 C3.08089673 2.77280706 4.68775452 5.06326356 6 9 C4.1875 8.8125 4.1875 8.8125 2 8 C0.1875 5.625 0.1875 5.625 -1 3 C-0.67 2.01 -0.34 1.02 0 0 Z " fill="#EEEEEF" transform="translate(6,18)"/>
<path d="M0 0 C0.99 0 1.98 0 3 0 C2.34 3.96 1.68 7.92 1 12 C0.34 11.67 -0.32 11.34 -1 11 C-0.67 7.37 -0.34 3.74 0 0 Z " fill="#4F6F94" transform="translate(33,20)"/>
<path d="M0 0 C-0.33 1.65 -0.66 3.3 -1 5 C-2.65 5.33 -4.3 5.66 -6 6 C-5.67 4.35 -5.34 2.7 -5 1 C-2 0 -2 0 0 0 Z " fill="#DB2B2F" transform="translate(38,11)"/>
<path d="M0 0 C1.32 0.33 2.64 0.66 4 1 C3.67 1.66 3.34 2.32 3 3 C2.34 2.67 1.68 2.34 1 2 C1 2.66 1 3.32 1 4 C0.01 4 -0.98 4 -2 4 C-1.67 5.32 -1.34 6.64 -1 8 C-1.99 7.67 -2.98 7.34 -4 7 C-3.67 5.68 -3.34 4.36 -3 3 C-2.34 3 -1.68 3 -1 3 C-0.67 2.01 -0.34 1.02 0 0 Z " fill="#A4B1BC" transform="translate(11,14)"/>
<path d="M0 0 C1.32 0 2.64 0 4 0 C4 1.65 4 3.3 4 5 C2.35 5 0.7 5 -1 5 C-0.67 3.35 -0.34 1.7 0 0 Z " fill="#E3393D" transform="translate(19,24)"/>
<path d="M0 0 C0.99 0.33 1.98 0.66 3 1 C2.67 2.98 2.34 4.96 2 7 C1.67 6.34 1.34 5.68 1 5 C0.01 5.33 -0.98 5.66 -2 6 C-2.33 4.68 -2.66 3.36 -3 2 C-2.01 2 -1.02 2 0 2 C0 1.34 0 0.68 0 0 Z " fill="#2A688D" transform="translate(12,16)"/>
<path d="M0 0 C0.99 0.495 0.99 0.495 2 1 C2 1.66 2 2.32 2 3 C3.32 3 4.64 3 6 3 C6 3.66 6 4.32 6 5 C6.99 5.33 7.98 5.66 9 6 C3.52173913 6.36521739 3.52173913 6.36521739 1.125 4.6875 C0 3 0 3 0 0 Z " fill="#4A6B83" transform="translate(3,38)"/>
<path d="M0 0 C0.33 0.99 0.66 1.98 1 3 C-0.6875 4.5625 -0.6875 4.5625 -3 6 C-5.75 5.6875 -5.75 5.6875 -8 5 C-7.360625 4.896875 -6.72125 4.79375 -6.0625 4.6875 C-5.381875 4.460625 -4.70125 4.23375 -4 4 C-3.67 3.01 -3.34 2.02 -3 1 C-2.01 0.67 -1.02 0.34 0 0 Z " fill="#FDFDFD" transform="translate(51,21)"/>
<path d="M0 0 C1.65 1.32 3.3 2.64 5 4 C3.68 5.32 2.36 6.64 1 8 C0.34 5.69 -0.32 3.38 -1 1 C-0.67 0.67 -0.34 0.34 0 0 Z " fill="#1E80B7" transform="translate(28,20)"/>
<path d="M0 0 C2.97 0 5.94 0 9 0 C8.67 1.32 8.34 2.64 8 4 C5.36 3.34 2.72 2.68 0 2 C0 1.34 0 0.68 0 0 Z " fill="#718A9B" transform="translate(17,31)"/>
<path d="M0 0 C0.556875 0.474375 1.11375 0.94875 1.6875 1.4375 C4.18346074 3.12395996 6.0446237 3.58953107 9 4 C9 4.66 9 5.32 9 6 C2.25 5.25 2.25 5.25 0 3 C0 2.01 0 1.02 0 0 Z " fill="#224D6A" transform="translate(5,23)"/>
<path d="M0 0 C1.65 0 3.3 0 5 0 C4.67 1.32 4.34 2.64 4 4 C2.68 4 1.36 4 0 4 C0 2.68 0 1.36 0 0 Z " fill="#F5393C" transform="translate(35,25)"/>
</svg>
